<?xml version="1.0" encoding="UTF-8"?>
<svg id="Layer_2" data-name="Layer 2" xmlns="http://www.w3.org/2000/svg" viewBox="0 0 3835.74 3852.09">
  <defs>
    <style>
      .cls-1, .cls-2 {
        fill: #0042b3;
      }

      .cls-1, .cls-3 {
        stroke: #0042b3;
        stroke-miterlimit: 10;
        stroke-width: 200px;
      }

      .cls-3 {
        fill: none;
      }
    </style>
  </defs>
  <g id="Layer_1-2" data-name="Layer 1">
    <ellipse class="cls-3" cx="1917.87" cy="1926.04" rx="1817.87" ry="1826.04"/>
    <line class="cls-1" x1="2774.67" y1="1289.19" x2="3416.8" y2="814.52"/>
    <line class="cls-1" x1="451.38" y1="3006.6" x2="1101.86" y2="2528.99"/>
    <path class="cls-2" d="M954.76,1120.36v2007.4h1911.7v-2007.4H954.76ZM1910.56,2862.66c-407.3,0-738.7-331.4-738.7-738.7s331.4-738.6,738.7-738.6,738.7,331.4,738.7,738.6-331.4,738.7-738.7,738.7Z"/>
    <path class="cls-2" d="M2706.06,693.36h-1591.1c-88.6,0-160.4,71.9-160.4,160.4h0v211.5h1911.9v-211.5c-.1-88.5-71.8-160.3-160.4-160.4ZM1305.06,906.86h-175.5c-15.3,0-27.7-12.4-27.7-27.7s12.4-27.7,27.7-27.7h175.5c15.3,0,27.7,12.4,27.7,27.7-.1,15.3-12.5,27.7-27.7,27.7ZM1667.76,906.86h-175.5c-15.3,0-27.7-12.4-27.7-27.7s12.4-27.7,27.7-27.7h175.5c15.3,0,27.7,12.4,27.7,27.7,0,15.3-12.4,27.7-27.7,27.7ZM2030.56,906.86h-175.3c-15.3,0-27.7-12.4-27.7-27.7s12.4-27.7,27.7-27.7h175.5c15.3,0,27.7,12.4,27.7,27.7s-12.4,27.7-27.7,27.7h-.2ZM2719.26,960.16c0,15.3-12.4,27.7-27.7,27.7h-501.8c-15.3,0-27.7-12.4-27.7-27.7v-161.7c0-15.3,12.4-27.7,27.7-27.7h501.8c15.3,0,27.7,12.4,27.7,27.7v161.7Z"/>
    <rect class="cls-2" x="2217.46" y="825.96" width="446.5" height="106.5"/>
    <g>
      <path class="cls-2" d="M1909.7,1472.6c-358.05,0-649.53,291.54-649.53,649.68s291.48,649.68,649.53,649.68,649.53-291.54,649.53-649.68-291.48-649.68-649.53-649.68ZM1909.7,2609.53c-268.54,0-487.15-218.66-487.15-487.26s218.61-487.26,487.15-487.26,487.15,218.66,487.15,487.26-218.61,487.26-487.15,487.26Z"/>
      <path class="cls-2" d="M1909.7,1716.22c-223.89,0-405.96,182.11-405.96,406.05s182.07,406.05,405.96,406.05,405.96-182.11,405.96-406.05-182.07-406.05-405.96-406.05ZM1871.14,2081.67h77.13c72.46,0,131.12,58.88,131.12,131.15s-57.65,129.94-129.09,130.95v27c0,22.33-18.27,40.6-40.6,40.6s-40.6-18.27-40.6-40.6v-27c-71.45-1.01-129.09-59.28-129.09-130.95,0-22.54,18.07-40.6,40.6-40.6s40.6,18.07,40.6,40.6c0,27.41,22.33,49.94,49.93,49.94h77.13c27.6,0,49.93-22.54,49.93-49.94s-22.33-49.94-49.93-49.94h-77.13c-72.46,0-131.12-58.88-131.12-131.15s57.65-129.93,129.09-130.95v-27c0-22.33,18.27-40.6,40.6-40.6s40.6,18.27,40.6,40.6v27c71.45,1.02,129.09,59.28,129.09,130.95,0,22.54-18.07,40.6-40.6,40.6s-40.6-18.07-40.6-40.6c0-27.41-22.33-49.94-49.93-49.94h-77.13c-27.6,0-49.93,22.54-49.93,49.94s22.33,49.94,49.93,49.94Z"/>
    </g>
  </g>
</svg>