<?xml version="1.0" encoding="UTF-8"?>
<svg id="Layer_2" data-name="Layer 2" xmlns="http://www.w3.org/2000/svg" xmlns:xlink="http://www.w3.org/1999/xlink" viewBox="0 0 82 82">
  <defs>
    <style>
      .cls-1 {
        fill: #fff;
      }

      .cls-2 {
        filter: url(#dropshadow2);
      }

      .cls-3 {
        fill: none;
        stroke: #fff;
        stroke-miterlimit: 10;
        stroke-width: 2px;
      }

      .cls-4 {
        fill: #fbd63b;
      }
    </style>
    <filter id="dropshadow2">
      <feGaussianBlur in="SourceAlpha" stdDeviation="2"/>
      <feOffset dx="3" dy="3"/>
      <feComponentTransfer>
        <feFuncA slope="0.5" type="linear"/>
      </feComponentTransfer>
      <feMerge>
        <feMergeNode/>
        <feMergeNode in="SourceGraphic"/>
      </feMerge>
    </filter>
  </defs>
  <g id="Diagram">
    <g id="wallet-group">
      <g id="anon-coin">
        <g class="cls-2">
          <circle class="cls-4" cx="41.12" cy="41.12" r="34.27"/>
        </g>
        <circle class="cls-3" cx="41.19" cy="41.19" r="27.2"/>
        <g>
          <path class="cls-1" d="M47.48,45.47l4.03-4.72-4.36-2.49c1.35-1.38,2.09-3.19,2.09-5.06v-1.42h1.69c.74.01,1.35-.54,1.36-1.23,0-.09,0-.18-.03-.27-.14-.6-.72-1.02-1.38-1h-2.15l-2.22-6.23c-.16-1.11-1.24-1.89-2.43-1.74-.49.06-.94.28-1.28.61-.89.88-2.37.92-3.31.09-.02-.02-.04-.04-.06-.05l-.15-.14c-.86-.78-2.23-.76-3.05.05-.33.32-.53.72-.59,1.16l-2.52,6.25h-2.15c-.65-.01-1.22.41-1.35,1-.15.68.32,1.34,1.04,1.48,0,0,0,0,0,0,.09.02.18.02.27.03h2.19v1.42c0,1.87.75,3.68,2.1,5.06l-4.36,2.49,4.03,4.72-1.51.94,5.42,12.74h4.77l5.42-12.74-1.51-.94h0ZM35.14,31.78h12.09v1.42c0,3.13-2.71,5.66-6.04,5.66s-6.04-2.54-6.04-5.66v-1.42ZM42.8,53.61l-.44-8.26h-2.34l-.44,8.26-2.19-13.76c2.36,1.19,5.21,1.2,7.58.01l-2.16,13.74Z"/>
          <path class="cls-1" d="M32.15,46.05l.68-.42.6-.37-2.37-2.77c-1.46.57-2.84,1.33-4.08,2.25-1.18.86-1.88,2.17-1.9,3.57v8.29l.45.28c2.02,1.26,6.85,2,12.18,2.23l-5.25-12.34-.3-.71h0Z"/>
          <path class="cls-1" d="M57.3,48.28c-.03-1.39-.72-2.69-1.88-3.54-1.25-.93-2.63-1.69-4.1-2.26l-2.37,2.77.6.37.68.42-.3.71-5.26,12.35c5.46-.22,10.37-.98,12.22-2.27l.4-.28v-8.28h0Z"/>
          <polygon class="cls-1" points="39.18 41.57 39.96 44.41 42.42 44.41 43.2 41.57 39.18 41.57 39.18 41.57 39.18 41.57"/>
        </g>
      </g>
    </g>
  </g>
</svg>