<?xml version="1.0" encoding="UTF-8"?>
<svg id="Layer_2" data-name="Layer 2" xmlns="http://www.w3.org/2000/svg" xmlns:xlink="http://www.w3.org/1999/xlink" viewBox="0 0 66 66">
  <defs>
    <style>
      .cls-1 {
        fill: #fff;
      }

      .cls-2 {
        fill: none;
        stroke: #fff;
        stroke-miterlimit: 10;
        stroke-width: 2px;
      }

      .cls-3 {
        fill: #fbd63b;
      }

      .cls-4 {
        filter: url(#dropshadow3);
      }
    </style>
    <filter id="dropshadow3">
      <feGaussianBlur in="SourceAlpha" stdDeviation="1"/>
      <feOffset dx="2" dy="2"/>
      <feComponentTransfer>
        <feFuncA slope="0.3" type="linear"/>
      </feComponentTransfer>
      <feMerge>
        <feMergeNode/>
        <feMergeNode in="SourceGraphic"/>
      </feMerge>
    </filter>
  </defs>
  <g id="Withdraw_details" data-name="Withdraw details">
    <g id="coin">
      <g class="cls-4">
        <ellipse class="cls-3" cx="33.03" cy="32.91" rx="27.52" ry="27.42"/>
      </g>
      <ellipse class="cls-2" cx="33.08" cy="32.96" rx="21.84" ry="21.76"/>
      <path class="cls-1" d="M40.45,27.5h-6.5v-1.07c0-1.14-.08-1.89-.23-2.24s-.47-.53-.96-.53c-.4,0-.69.15-.89.46-.2.3-.3.76-.3,1.37,0,1.01.2,1.72.61,2.13.4.41,1.56,1.2,3.51,2.37,1.65.99,2.78,1.75,3.38,2.28.6.53,1.11,1.28,1.52,2.24s.62,2.17.62,3.61c0,2.31-.56,4.12-1.67,5.43-1.12,1.31-2.79,2.13-5.02,2.44v2.44h-2.99v-2.52c-1.74-.17-3.25-.84-4.55-2-1.3-1.16-1.95-3.18-1.95-6.06v-1.27h6.5v1.59c0,1.74.07,2.82.2,3.24.13.42.46.63.97.63.44,0,.77-.15.98-.44s.32-.73.32-1.31c0-1.45-.1-2.49-.31-3.12-.2-.62-.9-1.31-2.09-2.04-1.98-1.24-3.33-2.15-4.04-2.73s-1.33-1.4-1.85-2.46-.78-2.25-.78-3.59c0-1.93.55-3.45,1.65-4.55,1.1-1.1,2.75-1.78,4.94-2.04v-2.07h2.99v2.07c2,.26,3.5.93,4.5,2.01,1,1.08,1.5,2.58,1.5,4.49,0,.27-.02.67-.06,1.22Z"/>
    </g>
  </g>
</svg>