<svg width="96" height="96" xmlns="http://www.w3.org/2000/svg" xmlns:xlink="http://www.w3.org/1999/xlink" xml:space="preserve" overflow="hidden"><g transform="translate(-580 -142)"><path d="M640.5 201 648.5 191 639.844 185.721C642.517 182.79 643.999 178.967 644 175L644 172 647.352 172C648.815 172.029 650.025 170.865 650.053 169.402 650.057 169.207 650.039 169.012 650 168.82 649.72 167.543 648.566 166.65 647.26 166.7L643 166.7 638.59 153.49C638.277 151.142 636.119 149.492 633.77 149.805 632.801 149.934 631.904 150.391 631.23 151.1 629.47 152.97 626.527 153.06 624.657 151.3 624.617 151.263 624.578 151.225 624.54 151.186L624.24 150.886C622.536 149.239 619.821 149.285 618.174 150.989 617.525 151.66 617.113 152.524 617 153.45L612 166.7 607.74 166.7C606.453 166.675 605.326 167.562 605.05 168.82 604.757 170.254 605.682 171.654 607.116 171.947 607.116 171.947 607.116 171.947 607.116 171.947 607.292 171.982 607.471 172 607.65 172L612 172 612 175C612.001 178.968 613.485 182.793 616.16 185.724L607.5 191 615.5 201 612.5 203 623.26 230 632.74 230 643.5 203ZM616 172 640 172 640 175C640 181.627 634.627 187 628 187 621.373 187 616 181.627 616 175ZM631.2 218.25 630.32 200.75 625.68 200.75 624.8 218.25 620.454 189.1C625.149 191.623 630.794 191.632 635.498 189.125Z" fill="#0042B3"/><path d="M610.046 202.235 611.394 201.335 612.579 200.545 607.879 194.665C604.972 195.871 602.246 197.474 599.779 199.428 597.439 201.251 596.05 204.035 596 207L596 224.57 596.89 225.164C600.9 227.835 610.5 229.411 621.071 229.9L610.646 203.74Z" fill="#0042B3"/><path d="M660 206.962C659.947 204.026 658.576 201.27 656.267 199.456 653.79 197.492 651.053 195.881 648.134 194.669L643.434 200.546 644.619 201.336 645.968 202.236 645.368 203.741 634.928 229.92C645.765 229.458 655.528 227.852 659.195 225.1L659.995 224.5Z" fill="#0042B3"/><path d="M624.004 192.75 625.554 198.75 630.454 198.75 632.004 192.75 624.004 192.75Z" fill="#0042B3"/></g></svg>