<?xml version="1.0" encoding="UTF-8"?>
<svg id="Layer_2" data-name="Layer 2" xmlns="http://www.w3.org/2000/svg" xmlns:xlink="http://www.w3.org/1999/xlink" viewBox="0 0 2545.89 1534.52">
  <defs>
    <style>
      .cls-1 {
        filter: url(#dropshadow2-26);
      }

      .cls-2 {
        filter: url(#dropshadow2-8);
      }

      .cls-3 {
        letter-spacing: -.01em;
      }

      .cls-4 {
        filter: url(#dropshadow2-25);
      }

      .cls-5 {
        letter-spacing: -.02em;
      }

      .cls-6 {
        filter: url(#dropshadow2-38);
      }

      .cls-7, .cls-8, .cls-9 {
        fill: #39b54a;
      }

      .cls-7, .cls-10, .cls-11 {
        opacity: .2;
      }

      .cls-12, .cls-13, .cls-14, .cls-15, .cls-16, .cls-17, .cls-18, .cls-19, .cls-20, .cls-21, .cls-22 {
        stroke-miterlimit: 10;
      }

      .cls-12, .cls-13, .cls-15, .cls-17, .cls-20, .cls-21, .cls-22 {
        stroke-width: 2px;
      }

      .cls-12, .cls-23, .cls-24, .cls-25 {
        fill: #fff;
      }

      .cls-12, .cls-22 {
        stroke: #fbd63b;
      }

      .cls-26 {
        filter: url(#dropshadow2-29);
      }

      .cls-27 {
        letter-spacing: -.01em;
      }

      .cls-28 {
        letter-spacing: 0em;
      }

      .cls-29 {
        filter: url(#dropshadow2-10);
      }

      .cls-30 {
        filter: url(#dropshadow2-9);
      }

      .cls-31 {
        filter: url(#dropshadow2-4);
      }

      .cls-13, .cls-14, .cls-15, .cls-16, .cls-17, .cls-18, .cls-20, .cls-21, .cls-22, .cls-32 {
        fill: none;
      }

      .cls-13, .cls-14, .cls-18, .cls-19 {
        stroke: #0042b3;
      }

      .cls-14, .cls-16 {
        stroke-width: 3px;
      }

      .cls-33 {
        letter-spacing: .08em;
      }

      .cls-34 {
        filter: url(#dropshadow2-6);
      }

      .cls-35 {
        filter: url(#dropshadow2-24);
      }

      .cls-36 {
        letter-spacing: 0em;
      }

      .cls-37 {
        filter: url(#dropshadow2-31);
      }

      .cls-38 {
        filter: url(#dropshadow2-18);
      }

      .cls-15, .cls-16 {
        stroke: #39b54a;
      }

      .cls-39 {
        letter-spacing: 0em;
      }

      .cls-40 {
        filter: url(#dropshadow2-36);
      }

      .cls-41 {
        filter: url(#dropshadow2-11);
      }

      .cls-42 {
        filter: url(#dropshadow2-17);
      }

      .cls-43 {
        fill: #fbd63b;
      }

      .cls-44 {
        filter: url(#dropshadow2-32);
      }

      .cls-45 {
        letter-spacing: 0em;
      }

      .cls-46 {
        letter-spacing: 0em;
      }

      .cls-47 {
        filter: url(#dropshadow2-23);
      }

      .cls-48 {
        letter-spacing: -.01em;
      }

      .cls-49 {
        letter-spacing: -.02em;
      }

      .cls-10, .cls-50 {
        fill: #65c8d0;
      }

      .cls-51 {
        filter: url(#dropshadow2-39);
      }

      .cls-52 {
        letter-spacing: -.02em;
      }

      .cls-53 {
        letter-spacing: -.02em;
      }

      .cls-54 {
        font-size: 33px;
      }

      .cls-54, .cls-55, .cls-56, .cls-57, .cls-19, .cls-11, .cls-58, .cls-59 {
        fill: #0042b3;
      }

      .cls-54, .cls-55, .cls-9, .cls-24, .cls-58, .cls-59 {
        font-family: Montserrat-Bold, Montserrat;
        font-weight: 700;
      }

      .cls-60 {
        filter: url(#dropshadow2);
      }

      .cls-61 {
        letter-spacing: .08em;
      }

      .cls-55 {
        font-size: 35px;
      }

      .cls-62 {
        letter-spacing: 0em;
      }

      .cls-63 {
        letter-spacing: -.02em;
      }

      .cls-17 {
        stroke: #65c8d0;
      }

      .cls-64 {
        filter: url(#dropshadow-3);
      }

      .cls-65 {
        filter: url(#dropshadow);
      }

      .cls-18 {
        stroke-width: 7px;
      }

      .cls-66 {
        letter-spacing: 0em;
      }

      .cls-67 {
        letter-spacing: -.01em;
      }

      .cls-68 {
        font-size: 28px;
      }

      .cls-68, .cls-69, .cls-25, .cls-70 {
        font-family: Montserrat-Regular, Montserrat;
      }

      .cls-71 {
        letter-spacing: 0em;
      }

      .cls-72 {
        letter-spacing: 0em;
      }

      .cls-73 {
        filter: url(#dropshadow2-7);
      }

      .cls-74 {
        filter: url(#dropshadow2-19);
      }

      .cls-75 {
        letter-spacing: 0em;
      }

      .cls-76 {
        filter: url(#dropshadow2-2);
      }

      .cls-77 {
        fill: #c6d6ee;
      }

      .cls-78 {
        letter-spacing: -.02em;
      }

      .cls-79 {
        letter-spacing: 0em;
      }

      .cls-80 {
        letter-spacing: 0em;
      }

      .cls-81 {
        filter: url(#dropshadow2-35);
      }

      .cls-57 {
        font-family: Montserrat-Medium, Montserrat;
        font-size: 100.41px;
        font-weight: 500;
      }

      .cls-82 {
        letter-spacing: 0em;
      }

      .cls-83 {
        filter: url(#dropshadow-2);
      }

      .cls-84 {
        letter-spacing: 0em;
      }

      .cls-85 {
        letter-spacing: 0em;
      }

      .cls-86 {
        filter: url(#dropshadow2-40);
      }

      .cls-19 {
        stroke-width: .75px;
      }

      .cls-87 {
        letter-spacing: 0em;
      }

      .cls-9 {
        font-size: 29.33px;
      }

      .cls-88 {
        filter: url(#dropshadow2-12);
      }

      .cls-89 {
        filter: url(#dropshadow2-33);
      }

      .cls-90 {
        filter: url(#dropshadow2-41);
      }

      .cls-91 {
        filter: url(#dropshadow2-30);
      }

      .cls-92 {
        filter: url(#dropshadow2-22);
      }

      .cls-93 {
        letter-spacing: 0em;
      }

      .cls-94 {
        letter-spacing: 0em;
      }

      .cls-95 {
        filter: url(#dropshadow2-3);
      }

      .cls-96 {
        filter: url(#dropshadow2-14);
      }

      .cls-97 {
        filter: url(#dropshadow2-15);
      }

      .cls-98 {
        letter-spacing: -.01em;
      }

      .cls-99 {
        letter-spacing: 0em;
      }

      .cls-20 {
        stroke: #fff;
      }

      .cls-100 {
        letter-spacing: 0em;
      }

      .cls-101 {
        letter-spacing: 0em;
      }

      .cls-102 {
        letter-spacing: 0em;
      }

      .cls-103 {
        filter: url(#dropshadow2-16);
      }

      .cls-104 {
        letter-spacing: 0em;
      }

      .cls-105 {
        filter: url(#dropshadow2-37);
      }

      .cls-21, .cls-32 {
        stroke: #0042b3;
      }

      .cls-24 {
        font-size: 32px;
      }

      .cls-106 {
        filter: url(#dropshadow2-34);
      }

      .cls-69 {
        font-size: 17.63px;
      }

      .cls-107 {
        filter: url(#dropshadow2-28);
      }

      .cls-108 {
        filter: url(#dropshadow2-27);
      }

      .cls-109 {
        filter: url(#dropshadow2-21);
      }

      .cls-32 {
        stroke-linecap: square;
        stroke-width: 2.3px;
      }

      .cls-58, .cls-70 {
        font-size: 27px;
      }

      .cls-110 {
        fill: #fbd63b;
      }

      .cls-25 {
        font-size: 18.13px;
      }

      .cls-111 {
        filter: url(#dropshadow2-20);
      }

      .cls-112 {
        letter-spacing: 0em;
      }

      .cls-59 {
        font-size: 24px;
      }

      .cls-113 {
        filter: url(#dropshadow2-5);
      }

      .cls-114 {
        letter-spacing: 0em;
      }

      .cls-115 {
        filter: url(#dropshadow2-13);
      }
    </style>
    <filter id="dropshadow">
      <feGaussianBlur in="SourceAlpha" stdDeviation="5"/>
      <feOffset dx="5" dy="5"/>
      <feComponentTransfer>
        <feFuncA slope="0.5" type="linear"/>
      </feComponentTransfer>
      <feMerge>
        <feMergeNode/>
        <feMergeNode in="SourceGraphic"/>
      </feMerge>
    </filter>
    <filter id="dropshadow-2" data-name="dropshadow">
      <feGaussianBlur in="SourceAlpha" stdDeviation="5"/>
      <feOffset dx="5" dy="5"/>
      <feComponentTransfer>
        <feFuncA slope="0.5" type="linear"/>
      </feComponentTransfer>
      <feMerge>
        <feMergeNode/>
        <feMergeNode in="SourceGraphic"/>
      </feMerge>
    </filter>
    <filter id="dropshadow2">
      <feGaussianBlur in="SourceAlpha" stdDeviation="2"/>
      <feOffset dx="3" dy="3"/>
      <feComponentTransfer>
        <feFuncA slope="0.5" type="linear"/>
      </feComponentTransfer>
      <feMerge>
        <feMergeNode/>
        <feMergeNode in="SourceGraphic"/>
      </feMerge>
    </filter>
    <filter id="dropshadow2-2" data-name="dropshadow2">
      <feGaussianBlur in="SourceAlpha" stdDeviation="2"/>
      <feOffset dx="3" dy="3"/>
      <feComponentTransfer>
        <feFuncA slope="0.5" type="linear"/>
      </feComponentTransfer>
      <feMerge>
        <feMergeNode/>
        <feMergeNode in="SourceGraphic"/>
      </feMerge>
    </filter>
    <filter id="dropshadow2-3" data-name="dropshadow2">
      <feGaussianBlur in="SourceAlpha" stdDeviation="2"/>
      <feOffset dx="3" dy="3"/>
      <feComponentTransfer>
        <feFuncA slope="0.5" type="linear"/>
      </feComponentTransfer>
      <feMerge>
        <feMergeNode/>
        <feMergeNode in="SourceGraphic"/>
      </feMerge>
    </filter>
    <filter id="dropshadow2-4" data-name="dropshadow2">
      <feGaussianBlur in="SourceAlpha" stdDeviation="2"/>
      <feOffset dx="3" dy="3"/>
      <feComponentTransfer>
        <feFuncA slope="0.5" type="linear"/>
      </feComponentTransfer>
      <feMerge>
        <feMergeNode/>
        <feMergeNode in="SourceGraphic"/>
      </feMerge>
    </filter>
    <filter id="dropshadow2-5" data-name="dropshadow2">
      <feGaussianBlur in="SourceAlpha" stdDeviation="2"/>
      <feOffset dx="3" dy="3"/>
      <feComponentTransfer>
        <feFuncA slope="0.5" type="linear"/>
      </feComponentTransfer>
      <feMerge>
        <feMergeNode/>
        <feMergeNode in="SourceGraphic"/>
      </feMerge>
    </filter>
    <filter id="dropshadow2-6" data-name="dropshadow2">
      <feGaussianBlur in="SourceAlpha" stdDeviation="2"/>
      <feOffset dx="3" dy="3"/>
      <feComponentTransfer>
        <feFuncA slope="0.5" type="linear"/>
      </feComponentTransfer>
      <feMerge>
        <feMergeNode/>
        <feMergeNode in="SourceGraphic"/>
      </feMerge>
    </filter>
    <filter id="dropshadow2-7" data-name="dropshadow2">
      <feGaussianBlur in="SourceAlpha" stdDeviation="2"/>
      <feOffset dx="3" dy="3"/>
      <feComponentTransfer>
        <feFuncA slope="0.5" type="linear"/>
      </feComponentTransfer>
      <feMerge>
        <feMergeNode/>
        <feMergeNode in="SourceGraphic"/>
      </feMerge>
    </filter>
    <filter id="dropshadow2-8" data-name="dropshadow2">
      <feGaussianBlur in="SourceAlpha" stdDeviation="2"/>
      <feOffset dx="3" dy="3"/>
      <feComponentTransfer>
        <feFuncA slope="0.5" type="linear"/>
      </feComponentTransfer>
      <feMerge>
        <feMergeNode/>
        <feMergeNode in="SourceGraphic"/>
      </feMerge>
    </filter>
    <filter id="dropshadow2-9" data-name="dropshadow2">
      <feGaussianBlur in="SourceAlpha" stdDeviation="2"/>
      <feOffset dx="3" dy="3"/>
      <feComponentTransfer>
        <feFuncA slope="0.5" type="linear"/>
      </feComponentTransfer>
      <feMerge>
        <feMergeNode/>
        <feMergeNode in="SourceGraphic"/>
      </feMerge>
    </filter>
    <filter id="dropshadow2-10" data-name="dropshadow2">
      <feGaussianBlur in="SourceAlpha" stdDeviation="2"/>
      <feOffset dx="3" dy="3"/>
      <feComponentTransfer>
        <feFuncA slope="0.5" type="linear"/>
      </feComponentTransfer>
      <feMerge>
        <feMergeNode/>
        <feMergeNode in="SourceGraphic"/>
      </feMerge>
    </filter>
    <filter id="dropshadow2-11" data-name="dropshadow2">
      <feGaussianBlur in="SourceAlpha" stdDeviation="2"/>
      <feOffset dx="3" dy="3"/>
      <feComponentTransfer>
        <feFuncA slope="0.5" type="linear"/>
      </feComponentTransfer>
      <feMerge>
        <feMergeNode/>
        <feMergeNode in="SourceGraphic"/>
      </feMerge>
    </filter>
    <filter id="dropshadow2-12" data-name="dropshadow2">
      <feGaussianBlur in="SourceAlpha" stdDeviation="2"/>
      <feOffset dx="3" dy="3"/>
      <feComponentTransfer>
        <feFuncA slope="0.5" type="linear"/>
      </feComponentTransfer>
      <feMerge>
        <feMergeNode/>
        <feMergeNode in="SourceGraphic"/>
      </feMerge>
    </filter>
    <filter id="dropshadow2-13" data-name="dropshadow2">
      <feGaussianBlur in="SourceAlpha" stdDeviation="2"/>
      <feOffset dx="3" dy="3"/>
      <feComponentTransfer>
        <feFuncA slope="0.5" type="linear"/>
      </feComponentTransfer>
      <feMerge>
        <feMergeNode/>
        <feMergeNode in="SourceGraphic"/>
      </feMerge>
    </filter>
    <filter id="dropshadow2-14" data-name="dropshadow2">
      <feGaussianBlur in="SourceAlpha" stdDeviation="2"/>
      <feOffset dx="3" dy="3"/>
      <feComponentTransfer>
        <feFuncA slope="0.5" type="linear"/>
      </feComponentTransfer>
      <feMerge>
        <feMergeNode/>
        <feMergeNode in="SourceGraphic"/>
      </feMerge>
    </filter>
    <filter id="dropshadow2-15" data-name="dropshadow2">
      <feGaussianBlur in="SourceAlpha" stdDeviation="2"/>
      <feOffset dx="3" dy="3"/>
      <feComponentTransfer>
        <feFuncA slope="0.5" type="linear"/>
      </feComponentTransfer>
      <feMerge>
        <feMergeNode/>
        <feMergeNode in="SourceGraphic"/>
      </feMerge>
    </filter>
    <filter id="dropshadow2-16" data-name="dropshadow2">
      <feGaussianBlur in="SourceAlpha" stdDeviation="2"/>
      <feOffset dx="3" dy="3"/>
      <feComponentTransfer>
        <feFuncA slope="0.5" type="linear"/>
      </feComponentTransfer>
      <feMerge>
        <feMergeNode/>
        <feMergeNode in="SourceGraphic"/>
      </feMerge>
    </filter>
    <filter id="dropshadow2-17" data-name="dropshadow2">
      <feGaussianBlur in="SourceAlpha" stdDeviation="2"/>
      <feOffset dx="3" dy="3"/>
      <feComponentTransfer>
        <feFuncA slope="0.5" type="linear"/>
      </feComponentTransfer>
      <feMerge>
        <feMergeNode/>
        <feMergeNode in="SourceGraphic"/>
      </feMerge>
    </filter>
    <filter id="dropshadow2-18" data-name="dropshadow2">
      <feGaussianBlur in="SourceAlpha" stdDeviation="2"/>
      <feOffset dx="3" dy="3"/>
      <feComponentTransfer>
        <feFuncA slope="0.5" type="linear"/>
      </feComponentTransfer>
      <feMerge>
        <feMergeNode/>
        <feMergeNode in="SourceGraphic"/>
      </feMerge>
    </filter>
    <filter id="dropshadow2-19" data-name="dropshadow2">
      <feGaussianBlur in="SourceAlpha" stdDeviation="2"/>
      <feOffset dx="3" dy="3"/>
      <feComponentTransfer>
        <feFuncA slope="0.5" type="linear"/>
      </feComponentTransfer>
      <feMerge>
        <feMergeNode/>
        <feMergeNode in="SourceGraphic"/>
      </feMerge>
    </filter>
    <filter id="dropshadow2-20" data-name="dropshadow2">
      <feGaussianBlur in="SourceAlpha" stdDeviation="2"/>
      <feOffset dx="3" dy="3"/>
      <feComponentTransfer>
        <feFuncA slope="0.5" type="linear"/>
      </feComponentTransfer>
      <feMerge>
        <feMergeNode/>
        <feMergeNode in="SourceGraphic"/>
      </feMerge>
    </filter>
    <filter id="dropshadow2-21" data-name="dropshadow2">
      <feGaussianBlur in="SourceAlpha" stdDeviation="2"/>
      <feOffset dx="3" dy="3"/>
      <feComponentTransfer>
        <feFuncA slope="0.5" type="linear"/>
      </feComponentTransfer>
      <feMerge>
        <feMergeNode/>
        <feMergeNode in="SourceGraphic"/>
      </feMerge>
    </filter>
    <filter id="dropshadow2-22" data-name="dropshadow2">
      <feGaussianBlur in="SourceAlpha" stdDeviation="2"/>
      <feOffset dx="3" dy="3"/>
      <feComponentTransfer>
        <feFuncA slope="0.5" type="linear"/>
      </feComponentTransfer>
      <feMerge>
        <feMergeNode/>
        <feMergeNode in="SourceGraphic"/>
      </feMerge>
    </filter>
    <filter id="dropshadow2-23" data-name="dropshadow2">
      <feGaussianBlur in="SourceAlpha" stdDeviation="2"/>
      <feOffset dx="3" dy="3"/>
      <feComponentTransfer>
        <feFuncA slope="0.5" type="linear"/>
      </feComponentTransfer>
      <feMerge>
        <feMergeNode/>
        <feMergeNode in="SourceGraphic"/>
      </feMerge>
    </filter>
    <filter id="dropshadow2-24" data-name="dropshadow2">
      <feGaussianBlur in="SourceAlpha" stdDeviation="2"/>
      <feOffset dx="3" dy="3"/>
      <feComponentTransfer>
        <feFuncA slope="0.5" type="linear"/>
      </feComponentTransfer>
      <feMerge>
        <feMergeNode/>
        <feMergeNode in="SourceGraphic"/>
      </feMerge>
    </filter>
    <filter id="dropshadow2-25" data-name="dropshadow2">
      <feGaussianBlur in="SourceAlpha" stdDeviation="2"/>
      <feOffset dx="3" dy="3"/>
      <feComponentTransfer>
        <feFuncA slope="0.5" type="linear"/>
      </feComponentTransfer>
      <feMerge>
        <feMergeNode/>
        <feMergeNode in="SourceGraphic"/>
      </feMerge>
    </filter>
    <filter id="dropshadow2-26" data-name="dropshadow2">
      <feGaussianBlur in="SourceAlpha" stdDeviation="2"/>
      <feOffset dx="3" dy="3"/>
      <feComponentTransfer>
        <feFuncA slope="0.5" type="linear"/>
      </feComponentTransfer>
      <feMerge>
        <feMergeNode/>
        <feMergeNode in="SourceGraphic"/>
      </feMerge>
    </filter>
    <filter id="dropshadow2-27" data-name="dropshadow2">
      <feGaussianBlur in="SourceAlpha" stdDeviation="2"/>
      <feOffset dx="3" dy="3"/>
      <feComponentTransfer>
        <feFuncA slope="0.5" type="linear"/>
      </feComponentTransfer>
      <feMerge>
        <feMergeNode/>
        <feMergeNode in="SourceGraphic"/>
      </feMerge>
    </filter>
    <filter id="dropshadow2-28" data-name="dropshadow2">
      <feGaussianBlur in="SourceAlpha" stdDeviation="2"/>
      <feOffset dx="3" dy="3"/>
      <feComponentTransfer>
        <feFuncA slope="0.5" type="linear"/>
      </feComponentTransfer>
      <feMerge>
        <feMergeNode/>
        <feMergeNode in="SourceGraphic"/>
      </feMerge>
    </filter>
    <filter id="dropshadow2-29" data-name="dropshadow2">
      <feGaussianBlur in="SourceAlpha" stdDeviation="2"/>
      <feOffset dx="3" dy="3"/>
      <feComponentTransfer>
        <feFuncA slope="0.5" type="linear"/>
      </feComponentTransfer>
      <feMerge>
        <feMergeNode/>
        <feMergeNode in="SourceGraphic"/>
      </feMerge>
    </filter>
    <filter id="dropshadow2-30" data-name="dropshadow2">
      <feGaussianBlur in="SourceAlpha" stdDeviation="2"/>
      <feOffset dx="3" dy="3"/>
      <feComponentTransfer>
        <feFuncA slope="0.5" type="linear"/>
      </feComponentTransfer>
      <feMerge>
        <feMergeNode/>
        <feMergeNode in="SourceGraphic"/>
      </feMerge>
    </filter>
    <filter id="dropshadow2-31" data-name="dropshadow2">
      <feGaussianBlur in="SourceAlpha" stdDeviation="2"/>
      <feOffset dx="3" dy="3"/>
      <feComponentTransfer>
        <feFuncA slope="0.5" type="linear"/>
      </feComponentTransfer>
      <feMerge>
        <feMergeNode/>
        <feMergeNode in="SourceGraphic"/>
      </feMerge>
    </filter>
    <filter id="dropshadow2-32" data-name="dropshadow2">
      <feGaussianBlur in="SourceAlpha" stdDeviation="2"/>
      <feOffset dx="3" dy="3"/>
      <feComponentTransfer>
        <feFuncA slope="0.5" type="linear"/>
      </feComponentTransfer>
      <feMerge>
        <feMergeNode/>
        <feMergeNode in="SourceGraphic"/>
      </feMerge>
    </filter>
    <filter id="dropshadow2-33" data-name="dropshadow2">
      <feGaussianBlur in="SourceAlpha" stdDeviation="2"/>
      <feOffset dx="3" dy="3"/>
      <feComponentTransfer>
        <feFuncA slope="0.5" type="linear"/>
      </feComponentTransfer>
      <feMerge>
        <feMergeNode/>
        <feMergeNode in="SourceGraphic"/>
      </feMerge>
    </filter>
    <filter id="dropshadow2-34" data-name="dropshadow2">
      <feGaussianBlur in="SourceAlpha" stdDeviation="2"/>
      <feOffset dx="3" dy="3"/>
      <feComponentTransfer>
        <feFuncA slope="0.5" type="linear"/>
      </feComponentTransfer>
      <feMerge>
        <feMergeNode/>
        <feMergeNode in="SourceGraphic"/>
      </feMerge>
    </filter>
    <filter id="dropshadow2-35" data-name="dropshadow2">
      <feGaussianBlur in="SourceAlpha" stdDeviation="2"/>
      <feOffset dx="3" dy="3"/>
      <feComponentTransfer>
        <feFuncA slope="0.5" type="linear"/>
      </feComponentTransfer>
      <feMerge>
        <feMergeNode/>
        <feMergeNode in="SourceGraphic"/>
      </feMerge>
    </filter>
    <filter id="dropshadow2-36" data-name="dropshadow2">
      <feGaussianBlur in="SourceAlpha" stdDeviation="2"/>
      <feOffset dx="3" dy="3"/>
      <feComponentTransfer>
        <feFuncA slope="0.5" type="linear"/>
      </feComponentTransfer>
      <feMerge>
        <feMergeNode/>
        <feMergeNode in="SourceGraphic"/>
      </feMerge>
    </filter>
    <filter id="dropshadow2-37" data-name="dropshadow2">
      <feGaussianBlur in="SourceAlpha" stdDeviation="2"/>
      <feOffset dx="3" dy="3"/>
      <feComponentTransfer>
        <feFuncA slope="0.5" type="linear"/>
      </feComponentTransfer>
      <feMerge>
        <feMergeNode/>
        <feMergeNode in="SourceGraphic"/>
      </feMerge>
    </filter>
    <filter id="dropshadow-3" data-name="dropshadow">
      <feGaussianBlur in="SourceAlpha" stdDeviation="5"/>
      <feOffset dx="5" dy="5"/>
      <feComponentTransfer>
        <feFuncA slope="0.5" type="linear"/>
      </feComponentTransfer>
      <feMerge>
        <feMergeNode/>
        <feMergeNode in="SourceGraphic"/>
      </feMerge>
    </filter>
    <filter id="dropshadow2-38" data-name="dropshadow2">
      <feGaussianBlur in="SourceAlpha" stdDeviation="2"/>
      <feOffset dx="3" dy="3"/>
      <feComponentTransfer>
        <feFuncA slope="0.5" type="linear"/>
      </feComponentTransfer>
      <feMerge>
        <feMergeNode/>
        <feMergeNode in="SourceGraphic"/>
      </feMerge>
    </filter>
    <filter id="dropshadow2-39" data-name="dropshadow2">
      <feGaussianBlur in="SourceAlpha" stdDeviation="2"/>
      <feOffset dx="3" dy="3"/>
      <feComponentTransfer>
        <feFuncA slope="0.5" type="linear"/>
      </feComponentTransfer>
      <feMerge>
        <feMergeNode/>
        <feMergeNode in="SourceGraphic"/>
      </feMerge>
    </filter>
    <filter id="dropshadow2-40" data-name="dropshadow2">
      <feGaussianBlur in="SourceAlpha" stdDeviation="2"/>
      <feOffset dx="3" dy="3"/>
      <feComponentTransfer>
        <feFuncA slope="0.5" type="linear"/>
      </feComponentTransfer>
      <feMerge>
        <feMergeNode/>
        <feMergeNode in="SourceGraphic"/>
      </feMerge>
    </filter>
    <filter id="dropshadow2-41" data-name="dropshadow2">
      <feGaussianBlur in="SourceAlpha" stdDeviation="2"/>
      <feOffset dx="3" dy="3"/>
      <feComponentTransfer>
        <feFuncA slope="0.5" type="linear"/>
      </feComponentTransfer>
      <feMerge>
        <feMergeNode/>
        <feMergeNode in="SourceGraphic"/>
      </feMerge>
    </filter>
  </defs>
  <g id="Refresh_Protocol" data-name="Refresh Protocol">
    <g>
      <g id="cust-ex">
        <g>
          <g class="cls-65">
            <ellipse class="cls-23" cx="129.15" cy="360.77" rx="81.77" ry="79.12"/>
          </g>
          <text class="cls-69" transform="translate(84.11 406.95) scale(1.03 1)"><tspan class="cls-52" x="0" y="0">C</tspan><tspan x="12.36" y="0">us</tspan><tspan class="cls-49" x="32.84" y="0">t</tspan><tspan x="39.66" y="0">o</tspan><tspan class="cls-46" x="50.71" y="0">m</tspan><tspan class="cls-79" x="69.44" y="0">er</tspan></text>
          <path class="cls-32" d="M101.36,378.02c0-10.05,13.9-10.05,20.84-16.75,3.47-3.35-6.95-3.35-6.95-20.1,0-11.17,4.63-16.75,13.9-16.75s13.9,5.58,13.9,16.75c0,16.75-10.42,16.75-6.95,20.1,6.95,6.7,20.84,6.7,20.84,16.75"/>
        </g>
        <g>
          <g class="cls-83">
            <path class="cls-56" d="M1328.25,277.03c44.01,0,79.69,36.43,79.69,81.38s-35.68,81.38-79.69,81.38-79.69-36.43-79.69-81.38,35.68-81.38,79.69-81.38"/>
          </g>
          <text class="cls-25" transform="translate(1285.0154 411.93) scale(.9793 1)"><tspan class="cls-78" x="0" y="0">E</tspan><tspan class="cls-5" x="11.86" y="0">x</tspan><tspan class="cls-85" x="21.19" y="0">c</tspan><tspan class="cls-93" x="31.25" y="0">ha</tspan><tspan class="cls-114" x="54.22" y="0">n</tspan><tspan x="66.53" y="0">ge</tspan></text>
          <g>
            <path class="cls-23" d="M1298.57,351.72c.38.16.82.16,1.2-.03l11.82-5.73c.76-.39,1.07-1.36.71-2.16-.35-.77-1.21-1.13-1.95-.77l-8.28,4.02c3.95-12.61,14.95-21.03,27.62-21.03s24.88,9.46,28.23,23c.21.86,1.04,1.37,1.85,1.15.8-.23,1.29-1.11,1.07-1.97-3.69-14.95-16.5-25.4-31.15-25.4s-26.12,9.3-30.51,23.21l-3.48-9.28c-.26-.84-1.12-1.31-1.91-1.03-.79.27-1.23,1.19-.97,2.03.02.06.05.13.08.19l4.83,12.91c.15.4.45.74.85.9h0Z"/>
            <path class="cls-23" d="M1365.36,375.54s-.03-.06-.03-.1l-4.83-12.91c-.15-.4-.45-.74-.85-.9-.38-.16-.82-.15-1.2.03l-11.82,5.73c-.77.34-1.14,1.29-.82,2.11.32.82,1.21,1.21,1.98.87.03-.02.06-.03.09-.05l8.28-4.02c-3.98,12.61-15,21.03-27.65,21.03-13.27,0-24.88-9.46-28.23-23-.21-.86-1.04-1.37-1.85-1.15-.8.23-1.29,1.11-1.07,1.97,3.68,14.96,16.5,25.4,31.15,25.4s26.11-9.3,30.51-23.21l3.48,9.28c.29.84,1.15,1.28,1.94.97.79-.31,1.2-1.23.91-2.07h0Z"/>
          </g>
        </g>
      </g>
      <g id="refresh-der">
        <g>
          <g>
            <g class="cls-60">
              <rect class="cls-23" x="417.31" y="116.61" width="133.87" height="85.72" rx="14.59" ry="14.59"/>
              <rect class="cls-21" x="417.31" y="116.61" width="133.87" height="85.72" rx="14.59" ry="14.59"/>
            </g>
            <text class="cls-59" transform="translate(435.66 154.29)"><tspan x="0" y="0">Re</tspan><tspan class="cls-61" x="32.78" y="0">f</tspan><tspan class="cls-100" x="43.99" y="0">r</tspan><tspan x="54.12" y="0">esh</tspan><tspan x="8.51" y="28.8">De</tspan><tspan class="cls-62" x="43.48" y="28.8">r</tspan><tspan x="53.72" y="28.8">i</tspan><tspan class="cls-98" x="60.95" y="28.8">v</tspan><tspan class="cls-84" x="74.94" y="28.8">e</tspan></text>
          </g>
          <g>
            <g class="cls-76">
              <rect class="cls-23" x="417.31" y="315.54" width="133.87" height="85.72" rx="14.59" ry="14.59"/>
              <rect class="cls-21" x="417.31" y="315.54" width="133.87" height="85.72" rx="14.59" ry="14.59"/>
            </g>
            <text class="cls-59" transform="translate(435.66 353.22)"><tspan x="0" y="0">Re</tspan><tspan class="cls-61" x="32.78" y="0">f</tspan><tspan class="cls-100" x="43.99" y="0">r</tspan><tspan x="54.12" y="0">esh</tspan><tspan x="8.51" y="28.8">De</tspan><tspan class="cls-62" x="43.48" y="28.8">r</tspan><tspan x="53.72" y="28.8">i</tspan><tspan class="cls-98" x="60.95" y="28.8">v</tspan><tspan class="cls-84" x="74.94" y="28.8">e</tspan></text>
          </g>
          <g>
            <g class="cls-95">
              <rect class="cls-23" x="413.57" y="523.78" width="133.87" height="85.72" rx="14.59" ry="14.59"/>
              <rect class="cls-21" x="413.57" y="523.78" width="133.87" height="85.72" rx="14.59" ry="14.59"/>
            </g>
            <text class="cls-59" transform="translate(431.92 561.45)"><tspan x="0" y="0">Re</tspan><tspan class="cls-61" x="32.78" y="0">f</tspan><tspan class="cls-100" x="43.99" y="0">r</tspan><tspan x="54.12" y="0">esh</tspan><tspan x="8.51" y="28.8">De</tspan><tspan class="cls-62" x="43.48" y="28.8">r</tspan><tspan x="53.72" y="28.8">i</tspan><tspan class="cls-98" x="60.95" y="28.8">v</tspan><tspan class="cls-84" x="74.94" y="28.8">e</tspan></text>
          </g>
        </g>
        <g>
          <g>
            <line class="cls-14" x1="379.4" y1="160.95" x2="275.38" y2="160.95"/>
            <path class="cls-56" d="M358.9,146.56c-.45.7-.24,1.63.46,2.07l19.36,12.33-19.36,12.33c-.7.45-.91,1.37-.46,2.07.45.7,1.38.9,2.07.46l21.34-13.59c.43-.28.69-.75.69-1.27s-.26-.99-.69-1.27l-21.34-13.59c-.25-.16-.53-.23-.8-.23-.5,0-.98.25-1.27.69Z"/>
          </g>
          <g>
            <line class="cls-14" x1="379.41" y1="359.83" x2="234.99" y2="359.83"/>
            <path class="cls-56" d="M358.9,345.43c-.45.7-.24,1.63.46,2.07l19.36,12.33-19.36,12.33c-.7.45-.91,1.37-.46,2.07s1.38.9,2.07.46l21.34-13.59c.43-.28.69-.75.69-1.27s-.26-.99-.69-1.27l-21.34-13.59c-.25-.16-.53-.23-.8-.23-.5,0-.98.25-1.27.69Z"/>
          </g>
          <g>
            <line class="cls-14" x1="379.4" y1="566.33" x2="275.38" y2="566.33"/>
            <path class="cls-56" d="M358.9,551.94c-.45.7-.24,1.63.46,2.07l19.36,12.33-19.36,12.33c-.7.45-.91,1.37-.46,2.07.45.7,1.38.9,2.07.46l21.34-13.59c.43-.28.69-.75.69-1.27s-.26-.99-.69-1.27l-21.34-13.59c-.25-.16-.53-.23-.8-.23-.5,0-.98.25-1.27.69Z"/>
          </g>
          <line class="cls-14" x1="275.35" y1="160.96" x2="275.37" y2="566.34"/>
        </g>
      </g>
      <g id="blind">
        <g>
          <g>
            <line class="cls-14" x1="682.02" y1="160.95" x2="578" y2="160.95"/>
            <path class="cls-56" d="M661.51,146.56c-.45.7-.24,1.63.46,2.07l19.36,12.33-19.36,12.33c-.7.45-.91,1.37-.46,2.07s1.38.9,2.07.46l21.34-13.59c.43-.28.69-.75.69-1.27s-.26-.99-.69-1.27l-21.34-13.59c-.25-.16-.53-.23-.8-.23-.5,0-.98.25-1.27.69Z"/>
          </g>
          <g>
            <line class="cls-14" x1="682.02" y1="359.88" x2="578" y2="359.88"/>
            <path class="cls-56" d="M661.51,345.48c-.45.7-.24,1.63.46,2.07l19.36,12.33-19.36,12.33c-.7.45-.91,1.37-.46,2.07s1.38.9,2.07.46l21.34-13.59c.43-.28.69-.75.69-1.27s-.26-.99-.69-1.27l-21.34-13.59c-.25-.16-.53-.23-.8-.23-.5,0-.98.25-1.27.69Z"/>
          </g>
          <g>
            <line class="cls-14" x1="682.02" y1="566.33" x2="578" y2="566.33"/>
            <path class="cls-56" d="M661.51,551.94c-.45.7-.24,1.63.46,2.07l19.36,12.33-19.36,12.33c-.7.45-.91,1.37-.46,2.07s1.38.9,2.07.46l21.34-13.59c.43-.28.69-.75.69-1.27s-.26-.99-.69-1.27l-21.34-13.59c-.25-.16-.53-.23-.8-.23-.5,0-.98.25-1.27.69Z"/>
          </g>
        </g>
        <g>
          <path class="cls-14" d="M716.18,104.23h152.58v104.17h-152.58v-104.17ZM716.18,104.23l70.54,68.5c3.22,3.12,8.3,3.12,11.52,0l70.51-68.5M716.18,208.4l53.87-51.86M868.76,208.4l-54.06-51.65"/>
          <path class="cls-14" d="M716.18,306.31h152.58v104.17h-152.58v-104.17ZM716.18,306.31l70.54,68.5c3.22,3.12,8.3,3.12,11.52,0l70.51-68.5M716.18,410.49l53.87-51.86M868.76,410.49l-54.06-51.65"/>
          <path class="cls-14" d="M716.18,509.56h152.58v104.17h-152.58v-104.17ZM716.18,509.56l70.54,68.5c3.22,3.12,8.3,3.12,11.52,0l70.51-68.5M716.18,613.73l53.87-51.86M868.76,613.73l-54.06-51.65"/>
        </g>
      </g>
      <g id="select">
        <g>
          <line class="cls-14" x1="900.23" y1="358.55" x2="1205.29" y2="358.83"/>
          <path class="cls-56" d="M920.72,372.96c.45-.7.24-1.63-.46-2.07l-19.35-12.35,19.37-12.31c.7-.44.91-1.37.46-2.07-.44-.7-1.38-.9-2.07-.46l-21.36,13.57c-.43.27-.69.75-.7,1.26,0,.51.26.99.69,1.27l21.33,13.61c.25.16.53.23.8.23.5,0,.98-.25,1.27-.69Z"/>
        </g>
      </g>
      <g id="open">
        <g>
          <g>
            <line class="cls-14" x1="993.58" y1="568.69" x2="889.56" y2="568.69"/>
            <path class="cls-56" d="M973.08,554.29c-.45.7-.24,1.63.46,2.07l19.36,12.33-19.36,12.33c-.7.45-.91,1.37-.46,2.07s1.38.9,2.07.46l21.34-13.59c.43-.28.69-.75.69-1.27s-.26-.99-.69-1.27l-21.34-13.59c-.25-.16-.53-.23-.8-.23-.5,0-.98.25-1.27.69Z"/>
          </g>
          <g>
            <line class="cls-14" x1="996.07" y1="161.46" x2="892.05" y2="161.46"/>
            <path class="cls-56" d="M975.57,147.06c-.45.7-.24,1.63.46,2.07l19.36,12.33-19.36,12.33c-.7.45-.91,1.37-.46,2.07s1.38.9,2.07.46l21.34-13.59c.43-.28.69-.75.69-1.27s-.26-.99-.69-1.27l-21.34-13.59c-.25-.16-.53-.23-.8-.23-.5,0-.98.25-1.27.69Z"/>
          </g>
        </g>
        <g>
          <g>
            <g>
              <path class="cls-14" d="M1104.05,32.09l81.09,67.22v112.93h-162.17v-112.93l81.09-67.22ZM1022.97,99.31l57.34,56.49-57.34,56.44,57.34-56.44c13.25-13.04,34.24-13.04,47.49,0l57.34,56.44-57.34-56.44,57.34-56.49"/>
              <path class="cls-77" d="M1080.56,153.97l-38.25-37.87-.23-62.04c0-5.97,4.74-10.8,10.59-10.8h100.34c5.85,0,10.59,4.84,10.59,10.8l.71,63.28-37.02,36.63-1.03-.9c-13.26-11.54-32.88-11.16-45.7.9h0Z"/>
            </g>
            <g>
              <g class="cls-31">
                <ellipse class="cls-110" cx="1103.19" cy="94.07" rx="31.34" ry="31.58"/>
              </g>
              <ellipse class="cls-20" cx="1103.25" cy="94.14" rx="24.87" ry="25.06"/>
              <path class="cls-23" d="M1111.65,87.84h-7.4v-1.24c0-1.32-.08-2.18-.26-2.58-.17-.41-.54-.61-1.1-.61-.45,0-.79.18-1.02.53s-.34.88-.34,1.58c0,1.17.23,1.99.7,2.45.45.47,1.78,1.38,3.99,2.73,1.88,1.14,3.16,2.02,3.85,2.63.68.61,1.26,1.47,1.73,2.58.47,1.11.7,2.5.7,4.16,0,2.66-.63,4.74-1.9,6.25-1.27,1.51-3.17,2.45-5.71,2.8v2.8h-3.41v-2.9c-1.98-.2-3.71-.96-5.18-2.3-1.48-1.33-2.22-3.66-2.22-6.98v-1.46h7.4v1.83c0,2,.08,3.25.23,3.74.15.49.52.73,1.11.73.5,0,.87-.17,1.12-.51.24-.34.37-.84.37-1.5,0-1.67-.12-2.87-.35-3.59-.23-.72-1.03-1.5-2.38-2.35-2.26-1.43-3.79-2.47-4.61-3.15-.81-.67-1.51-1.61-2.11-2.83-.59-1.22-.89-2.59-.89-4.13,0-2.23.63-3.97,1.88-5.24,1.25-1.27,3.13-2.05,5.63-2.34v-2.38h3.41v2.38c2.28.3,3.99,1.07,5.13,2.32,1.14,1.25,1.7,2.97,1.7,5.18,0,.31-.02.77-.07,1.4Z"/>
            </g>
          </g>
          <g>
            <g>
              <path class="cls-14" d="M1098.06,439.78l81.09,67.22v112.93h-162.17v-112.93l81.09-67.22ZM1016.97,507l57.34,56.49-57.34,56.44,57.34-56.44c13.25-13.04,34.24-13.04,47.49,0l57.34,56.44-57.34-56.44,57.34-56.49"/>
              <path class="cls-77" d="M1074.56,561.66l-38.25-37.87-.23-62.04c0-5.97,4.74-10.8,10.59-10.8h100.34c5.85,0,10.59,4.84,10.59,10.8l.71,63.28-37.02,36.63-1.03-.9c-13.26-11.54-32.88-11.16-45.7.9h0Z"/>
            </g>
            <g>
              <g class="cls-113">
                <ellipse class="cls-110" cx="1097.19" cy="501.76" rx="31.34" ry="31.58"/>
              </g>
              <ellipse class="cls-20" cx="1097.26" cy="501.83" rx="24.87" ry="25.06"/>
              <path class="cls-23" d="M1105.65,495.53h-7.4v-1.24c0-1.32-.08-2.18-.26-2.58-.17-.41-.54-.61-1.1-.61-.45,0-.79.18-1.02.53s-.34.88-.34,1.58c0,1.17.23,1.99.7,2.45.45.47,1.78,1.38,3.99,2.73,1.88,1.14,3.16,2.02,3.85,2.63.68.61,1.26,1.47,1.73,2.58.47,1.11.7,2.5.7,4.16,0,2.66-.63,4.74-1.9,6.25-1.27,1.51-3.17,2.45-5.71,2.8v2.8h-3.41v-2.9c-1.98-.2-3.71-.96-5.18-2.3-1.48-1.33-2.22-3.66-2.22-6.98v-1.46h7.4v1.83c0,2,.08,3.25.23,3.74.15.49.52.73,1.11.73.5,0,.87-.17,1.12-.51.24-.34.37-.84.37-1.5,0-1.67-.12-2.87-.35-3.59-.23-.72-1.03-1.5-2.38-2.35-2.26-1.43-3.79-2.47-4.61-3.15-.81-.67-1.51-1.61-2.11-2.83-.59-1.22-.89-2.59-.89-4.13,0-2.23.63-3.97,1.88-5.24,1.25-1.27,3.13-2.05,5.63-2.34v-2.38h3.41v2.38c2.28.3,3.99,1.07,5.13,2.32,1.14,1.25,1.7,2.97,1.7,5.18,0,.31-.02.77-.07,1.4Z"/>
            </g>
          </g>
        </g>
      </g>
      <g id="sign">
        <path class="cls-56" d="M922.94,237.72l-1.47-1.6,2.28-2.59c1.2-1.47,1.49-4.44-1.63-7.96-3.15-3.43-6.39-3.1-7.58-1.81l-34.45,35,10.99,11.97,27.25-31.04,1.39,1.52c.54.53.59,1.42.11,2.02l-20.78,22.62c-.9.95-.93,2.51-.06,3.49.87.98,2.3,1.01,3.21.06.02-.02.04-.04.06-.06l20.78-22.62c2.25-2.52,2.19-6.54-.12-9h0Z"/>
        <path class="cls-56" d="M854.52,287.51c-.86.96-1.69,1.95-2.49,2.97l-9.82,12.07,8.66,9.42,11.09-10.7c.94-.87,1.85-1.77,2.73-2.71l22.96-24.07-11-11.98-22.12,24.99h0Z"/>
        <path class="cls-56" d="M830.96,318.39c-.32.62-.2,1.4.29,1.88l-2.59,4.58c-.35.62-.17,1.43.4,1.81.19.12.4.19.62.19.23,0,.45-.07.64-.21l4.17-2.85c.43.52,1.13.65,1.7.31l10.77-8.81-7.84-8.53-8.16,11.62h0Z"/>
      </g>
      <rect class="cls-14" x="1.5" y="2.01" width="1453.96" height="702.73" rx="69.29" ry="69.29"/>
    </g>
  </g>
  <g id="Link">
    <g id="Refresh_Derive" data-name="Refresh Derive">
      <g>
        <rect class="cls-14" x="1530.47" y="1.5" width="1008" height="723.25" rx="69.29" ry="69.29"/>
        <g id="blue">
          <text class="cls-70" transform="translate(1835.9598 235.7708)"><tspan class="cls-63" x="0" y="0">k</tspan><tspan class="cls-27" x="15.66" y="0">e</tspan><tspan class="cls-99" x="31.7" y="0">y</tspan><tspan class="cls-102" x="46.17" y="0">s</tspan></text>
          <rect class="cls-11" x="1578.5" y="53.78" width="352.95" height="142.47" rx="22.75" ry="22.75"/>
          <g>
            <g class="cls-34">
              <ellipse class="cls-110" cx="1640.57" cy="121.12" rx="40.39" ry="41.09"/>
            </g>
            <ellipse class="cls-20" cx="1640.76" cy="121.09" rx="36.18" ry="36.89"/>
            <g>
              <path class="cls-23" d="M1631.87,116.03h-7.38v-1.25c0-1.33-.09-2.19-.26-2.6-.17-.41-.54-.61-1.1-.61-.45,0-.79.18-1.01.53s-.34.88-.34,1.59c0,1.18.23,2,.69,2.47.45.47,1.78,1.39,3.98,2.75,1.88,1.15,3.16,2.04,3.84,2.65.68.61,1.26,1.48,1.73,2.6.47,1.12.7,2.52.7,4.19,0,2.68-.63,4.78-1.9,6.3-1.27,1.52-3.17,2.47-5.7,2.83v2.83h-3.4v-2.92c-1.97-.2-3.7-.97-5.17-2.32-1.47-1.34-2.21-3.69-2.21-7.04v-1.47h7.38v1.84c0,2.02.08,3.28.23,3.77.15.49.52.73,1.11.73.5,0,.87-.17,1.11-.51.24-.34.37-.85.37-1.52,0-1.69-.12-2.89-.35-3.62-.23-.73-1.02-1.52-2.38-2.37-2.25-1.44-3.79-2.5-4.6-3.17s-1.51-1.63-2.1-2.85c-.59-1.23-.89-2.62-.89-4.17,0-2.24.62-4,1.87-5.28,1.25-1.28,3.12-2.06,5.62-2.36v-2.4h3.4v2.4c2.28.3,3.98,1.08,5.12,2.33,1.13,1.26,1.7,3,1.7,5.22,0,.31-.02.78-.07,1.41Z"/>
              <path class="cls-23" d="M1646.44,107.25v30.11h-7.38v-16.14c0-2.33-.06-3.73-.17-4.2-.11-.47-.41-.83-.9-1.07-.49-.24-1.59-.36-3.3-.36h-.73v-3.51c3.57-.78,6.28-2.39,8.13-4.82h4.35Z"/>
              <path class="cls-23" d="M1666.72,117.44v10.04c0,2.28-.12,3.94-.37,4.98-.24,1.04-.75,2.01-1.52,2.92-.77.9-1.69,1.56-2.78,1.95-1.08.4-2.3.59-3.64.59-1.77,0-3.24-.21-4.41-.62-1.17-.42-2.1-1.06-2.8-1.94-.69-.88-1.19-1.81-1.48-2.78-.29-.97-.44-2.52-.44-4.64v-10.51c0-2.76.23-4.83.7-6.21.47-1.38,1.4-2.48,2.8-3.31,1.39-.83,3.09-1.25,5.07-1.25,1.62,0,3.07.29,4.35.87,1.28.58,2.24,1.28,2.87,2.11.63.83,1.06,1.77,1.29,2.81.23,1.04.34,2.7.34,4.98ZM1659.34,114.91c0-1.6-.08-2.6-.23-3-.15-.4-.51-.6-1.07-.6s-.91.21-1.09.64-.26,1.42-.26,2.97v14.69c0,1.75.08,2.8.25,3.16.16.36.52.54,1.07.54s.91-.21,1.08-.63c.17-.42.26-1.37.26-2.84v-14.91Z"/>
            </g>
          </g>
          <g>
            <g class="cls-73">
              <rect class="cls-23" x="1703.01" y="72.53" width="206.81" height="102.64" rx="13.53" ry="13.53"/>
              <rect class="cls-13" x="1703.01" y="72.53" width="206.81" height="102.64" rx="13.53" ry="13.53"/>
            </g>
            <g>
              <g class="cls-2">
                <ellipse class="cls-23" cx="1848.22" cy="124.56" rx="33.58" ry="33.62"/>
                <ellipse class="cls-22" cx="1848.22" cy="124.56" rx="33.58" ry="33.62"/>
              </g>
              <path class="cls-43" d="M1849.26,135.83v2.82h-2.08v-2.82c-1.77-.63-2.85-2.87-1.43-5.19,2.59-2.28,5.6-.4,5.6,2.16,0,1.38-.89,2.55-2.08,3.03h0ZM1840.41,116.32c0-6.96,8.69-11.81,15.63-3.89v9.79s-7.82-.58-7.82-.58l-7.82.58v-5.9h0ZM1859.16,122.43v-6.11c0-6.17-4.9-11.17-10.94-11.17s-10.94,5-10.94,11.17v6.11l-3.65.27v20.2l14.59,1.06,14.59-1.06v-20.2l-3.65-.27h0Z"/>
            </g>
            <g>
              <g class="cls-30">
                <ellipse class="cls-23" cx="1757.35" cy="124.56" rx="32.77" ry="33.16"/>
                <ellipse class="cls-22" cx="1757.35" cy="124.56" rx="32.77" ry="33.16"/>
              </g>
              <path class="cls-43" d="M1767.6,126.56l2.42,2.58c.58.62,1.57.62,2.15,0l1.35-1.43c.58-.62,1.57-.62,2.15,0l1.22,1.3c.63.67,1.71.61,2.26-.12l2.58-3.43c.4-.53.4-1.25,0-1.78l-3.2-4.25c-.28-.37-.72-.59-1.18-.59h-20.21c-.54,0-1.01-.3-1.29-.76-2.03-3.35-5.53-5.54-9.54-5.54-6.25,0-11.31,5.38-11.31,12.02s5.06,12.02,11.31,12.02c4.01,0,7.51-2.19,9.54-5.54.28-.46.75-.76,1.29-.76h1.99c.41,0,.8-.17,1.08-.47l.64-.68c.58-.62,1.57-.62,2.15,0h0c.58.62,1.57.62,2.15,0l2.42-2.58h0ZM1741.48,127.99c-1.78,0-3.23-1.55-3.23-3.44s1.45-3.44,3.23-3.44,3.23,1.55,3.23,3.44-1.45,3.44-3.23,3.44h0Z"/>
            </g>
          </g>
        </g>
        <g id="rd">
          <g id="green">
            <rect class="cls-7" x="2114.54" y="56.76" width="352.95" height="142.47" rx="22.75" ry="22.75"/>
            <g>
              <g class="cls-29">
                <rect class="cls-23" x="2239.05" y="75.51" width="206.81" height="102.64" rx="13.53" ry="13.53"/>
                <rect class="cls-13" x="2239.05" y="75.51" width="206.81" height="102.64" rx="13.53" ry="13.53"/>
              </g>
              <g>
                <g class="cls-41">
                  <ellipse class="cls-23" cx="2384.26" cy="127.54" rx="33.58" ry="33.62"/>
                  <ellipse class="cls-15" cx="2384.26" cy="127.54" rx="33.58" ry="33.62"/>
                </g>
                <path class="cls-8" d="M2385.3,138.81v2.82h-2.08v-2.82c-1.77-.63-2.85-2.87-1.43-5.19,2.59-2.28,5.6-.4,5.6,2.16,0,1.38-.89,2.55-2.08,3.03h0ZM2376.45,119.3c0-6.96,8.69-11.81,15.63-3.89v9.79s-7.82-.58-7.82-.58l-7.82.58v-5.9h0ZM2395.2,125.41v-6.11c0-6.17-4.9-11.17-10.94-11.17s-10.94,5-10.94,11.17v6.11l-3.65.27v20.2l14.59,1.06,14.59-1.06v-20.2l-3.65-.27h0Z"/>
              </g>
              <g>
                <g class="cls-88">
                  <ellipse class="cls-23" cx="2293.4" cy="127.54" rx="32.77" ry="33.16"/>
                  <ellipse class="cls-15" cx="2293.4" cy="127.54" rx="32.77" ry="33.16"/>
                </g>
                <path class="cls-8" d="M2303.64,129.54l2.42,2.58c.58.62,1.57.62,2.15,0l1.35-1.43c.58-.62,1.57-.62,2.15,0l1.22,1.3c.63.67,1.71.61,2.26-.12l2.58-3.43c.4-.53.4-1.25,0-1.78l-3.2-4.25c-.28-.37-.72-.59-1.18-.59h-20.21c-.54,0-1.01-.3-1.29-.76-2.03-3.35-5.53-5.54-9.54-5.54-6.25,0-11.31,5.38-11.31,12.02s5.06,12.02,11.31,12.02c4.01,0,7.51-2.19,9.54-5.54.28-.46.75-.76,1.29-.76h1.99c.41,0,.8-.17,1.08-.47l.64-.68c.58-.62,1.57-.62,2.15,0h0c.58.62,1.57.62,2.15,0l2.42-2.58h0ZM2277.52,130.97c-1.78,0-3.23-1.55-3.23-3.44s1.45-3.44,3.23-3.44,3.23,1.55,3.23,3.44-1.45,3.44-3.23,3.44h0Z"/>
              </g>
            </g>
            <g>
              <g class="cls-115">
                <ellipse class="cls-110" cx="2179.92" cy="127.16" rx="41.92" ry="41.78"/>
              </g>
              <path class="cls-20" d="M2213.27,127.24c0,20.87-14.9,33.16-33.27,33.16s-33.27-14.85-33.27-33.16,14.9-33.16,33.27-33.16,33.27,14.85,33.27,33.16Z"/>
              <g>
                <path class="cls-23" d="M2179.09,121.4h-8.34v-1.38c0-1.47-.1-2.43-.29-2.88-.19-.45-.61-.68-1.24-.68-.51,0-.89.2-1.15.59-.25.39-.38.98-.38,1.76,0,1.3.26,2.22.78,2.74.51.52,2.01,1.54,4.5,3.04,2.12,1.28,3.56,2.25,4.33,2.93.77.68,1.42,1.64,1.95,2.88.53,1.24.79,2.79.79,4.64,0,2.96-.72,5.29-2.15,6.97-1.43,1.69-3.58,2.73-6.44,3.13v3.13h-3.84v-3.23c-2.23-.22-4.18-1.07-5.84-2.56s-2.5-4.08-2.5-7.79v-1.63h8.34v2.04c0,2.24.09,3.62.26,4.17.17.54.59.81,1.25.81.56,0,.98-.19,1.26-.57.28-.38.41-.94.41-1.68,0-1.87-.13-3.2-.39-4-.26-.8-1.16-1.68-2.68-2.62-2.55-1.59-4.28-2.76-5.19-3.51-.92-.75-1.71-1.8-2.37-3.16-.67-1.36-1-2.89-1-4.61,0-2.48.71-4.43,2.12-5.84,1.41-1.41,3.53-2.28,6.35-2.61v-2.65h3.84v2.65c2.57.33,4.5,1.19,5.78,2.58,1.28,1.39,1.92,3.32,1.92,5.77,0,.34-.03.86-.08,1.56Z"/>
                <path class="cls-23" d="M2200.89,111.69v5.33h-10.34v5.66c1.29-1.52,2.96-2.28,5-2.28,2.3,0,4.04.64,5.21,1.92,1.18,1.28,1.76,3.75,1.76,7.4v4.75c0,2.36-.11,4.09-.34,5.2-.23,1.1-.71,2.13-1.46,3.07s-1.78,1.66-3.11,2.16c-1.33.5-2.95.75-4.86.75-2.15,0-4.04-.37-5.68-1.12s-2.8-1.86-3.49-3.34-1.03-3.77-1.03-6.87v-1.81h8.34v2.08c0,2.15.08,3.68.23,4.59.15.91.67,1.36,1.57,1.36.41,0,.75-.13,1-.39s.39-.54.41-.84.04-1.61.07-3.93v-6.6c0-1.25-.13-2.1-.39-2.55-.26-.45-.7-.68-1.3-.68-.39,0-.71.12-.97.35s-.43.48-.51.75c-.08.27-.11.89-.11,1.86h-8.26l.35-16.79h17.9Z"/>
              </g>
            </g>
          </g>
          <g>
            <g>
              <line class="cls-14" x1="2087.79" y1="123.21" x2="1963.48" y2="123.53"/>
              <path class="cls-56" d="M2067.25,108.86c-.44.7-.23,1.63.47,2.07l19.39,12.28-19.33,12.38c-.7.45-.9,1.38-.45,2.07.45.7,1.38.9,2.07.45l21.31-13.65c.43-.28.69-.75.69-1.27,0-.51-.26-.99-.7-1.26l-21.38-13.54c-.25-.16-.53-.23-.8-.23-.5,0-.98.25-1.27.7Z"/>
            </g>
            <text class="cls-58" transform="translate(1999.641 42.2506)"><tspan x="0" y="0">Old</tspan><tspan x="-30.66" y="32.4">Re</tspan><tspan class="cls-33" x="6.22" y="32.4">f</tspan><tspan class="cls-80" x="18.83" y="32.4">r</tspan><tspan x="30.23" y="32.4">esh</tspan><tspan x="-21.09" y="64.8">De</tspan><tspan class="cls-101" x="18.25" y="64.8">r</tspan><tspan x="29.78" y="64.8">i</tspan><tspan class="cls-53" x="37.91" y="64.8">v</tspan><tspan x="53.65" y="64.8">e</tspan></text>
          </g>
        </g>
        <text id="ed25519" class="cls-70" transform="translate(1615.1944 237.9332)"><tspan class="cls-75" x="0" y="0">E</tspan><tspan x="17.85" y="0">d2</tspan><tspan class="cls-45" x="51.49" y="0">5</tspan><tspan x="66.64" y="0">519 -</tspan></text>
        <text id="ecdh" class="cls-70" transform="translate(1745.5208 237.7708)"><tspan class="cls-36" x="0" y="0">E</tspan><tspan x="17.95" y="0">CDH</tspan></text>
        <g id="link-key">
          <g>
            <rect class="cls-10" x="1578.5" y="269.55" width="352.95" height="142.47" rx="22.75" ry="22.75"/>
            <g class="cls-96">
              <rect class="cls-23" x="1700.63" y="288.76" width="206.81" height="102.64" rx="13.53" ry="13.53"/>
              <rect class="cls-13" x="1700.63" y="288.76" width="206.81" height="102.64" rx="13.53" ry="13.53"/>
            </g>
            <g>
              <g class="cls-97">
                <ellipse class="cls-23" cx="1845.84" cy="340.79" rx="33.58" ry="33.62"/>
                <ellipse class="cls-17" cx="1845.84" cy="340.79" rx="33.58" ry="33.62"/>
              </g>
              <path class="cls-50" d="M1846.89,352.06v2.82h-2.08v-2.82c-1.77-.63-2.85-2.87-1.43-5.19,2.59-2.28,5.6-.4,5.6,2.16,0,1.38-.89,2.55-2.08,3.03h0ZM1838.03,332.55c0-6.96,8.69-11.81,15.63-3.89v9.79s-7.82-.58-7.82-.58l-7.82.58v-5.9h0ZM1856.79,338.66v-6.11c0-6.17-4.9-11.17-10.94-11.17s-10.94,5-10.94,11.17v6.11l-3.65.27v20.2l14.59,1.06,14.59-1.06v-20.2l-3.65-.27h0Z"/>
            </g>
            <g>
              <g class="cls-103">
                <ellipse class="cls-23" cx="1754.98" cy="340.79" rx="32.77" ry="33.16"/>
                <ellipse class="cls-17" cx="1754.98" cy="340.79" rx="32.77" ry="33.16"/>
              </g>
              <path class="cls-50" d="M1765.22,342.79l2.42,2.58c.58.62,1.57.62,2.15,0l1.35-1.43c.58-.62,1.57-.62,2.15,0l1.22,1.3c.63.67,1.71.61,2.26-.12l2.58-3.43c.4-.53.4-1.25,0-1.78l-3.2-4.25c-.28-.37-.72-.59-1.18-.59h-20.21c-.54,0-1.01-.3-1.29-.76-2.03-3.35-5.53-5.54-9.54-5.54-6.25,0-11.31,5.38-11.31,12.02s5.06,12.02,11.31,12.02c4.01,0,7.51-2.19,9.54-5.54.28-.46.75-.76,1.29-.76h1.99c.41,0,.8-.17,1.08-.47l.64-.68c.58-.62,1.57-.62,2.15,0h0c.58.62,1.57.62,2.15,0l2.42-2.58h0ZM1739.1,344.22c-1.78,0-3.23-1.55-3.23-3.44s1.45-3.44,3.23-3.44,3.23,1.55,3.23,3.44-1.45,3.44-3.23,3.44h0Z"/>
            </g>
          </g>
          <g>
            <path class="cls-50" d="M1640.49,311.96c4.35-4.17,10.25-6.51,16.39-6.51,12.8,0,23.18,9.95,23.18,22.22,0,5.89-2.44,11.54-6.79,15.71l-9.07,8.69-6.25-5.99,9.07-8.69c2.69-2.58,4.2-6.07,4.2-9.72,0-7.59-6.42-13.74-14.34-13.74-3.8,0-7.45,1.45-10.14,4.02l-9.07,8.69-6.25-5.99,9.07-8.69Z"/>
            <path class="cls-50" d="M1642.64,360.75l9.07-8.69,6.25,5.99-9.07,8.69c-4.35,4.17-10.25,6.51-16.39,6.51-12.8,0-23.18-9.95-23.18-22.22,0-5.89,2.44-11.54,6.79-15.71l9.07-8.69,6.25,5.99-9.07,8.69c-2.69,2.58-4.2,6.07-4.2,9.72,0,7.59,6.42,13.74,14.34,13.74,3.8,0,7.45-1.45,10.14-4.02Z"/>
            <path class="cls-50" d="M1634.55,355.06l26.53-25.43-6.25-5.99-26.53,25.43,6.25,5.99Z"/>
          </g>
        </g>
        <g id="dh">
          <g id="dh2">
            <g>
              <g class="cls-42">
                <rect class="cls-23" x="1838.7" y="575.45" width="67.44" height="66.65" rx="13.53" ry="13.53"/>
                <rect class="cls-15" x="1838.7" y="575.45" width="67.44" height="66.65" rx="13.53" ry="13.53"/>
              </g>
              <text class="cls-9" transform="translate(1847.3273 618.1078) scale(1.0119 1)"><tspan x="0" y="0">DH</tspan></text>
            </g>
            <g>
              <g class="cls-38">
                <ellipse class="cls-23" cx="1746.62" cy="609.23" rx="33.58" ry="33.62"/>
                <ellipse class="cls-17" cx="1746.62" cy="609.23" rx="33.58" ry="33.62"/>
              </g>
              <path class="cls-50" d="M1747.66,620.51v2.82h-2.08v-2.82c-1.77-.63-2.85-2.87-1.43-5.19,2.59-2.28,5.6-.4,5.6,2.16,0,1.38-.89,2.55-2.08,3.03h0ZM1738.81,600.99c0-6.96,8.69-11.81,15.63-3.89v9.79s-7.82-.58-7.82-.58l-7.82.58v-5.9h0ZM1757.56,607.11v-6.11c0-6.17-4.9-11.17-10.94-11.17s-10.94,5-10.94,11.17v6.11l-3.65.27v20.2l14.59,1.06,14.59-1.06v-20.2l-3.65-.27h0Z"/>
            </g>
            <g>
              <g class="cls-74">
                <ellipse class="cls-23" cx="1638.53" cy="608.78" rx="32.77" ry="33.16"/>
                <ellipse class="cls-22" cx="1638.53" cy="608.78" rx="32.77" ry="33.16"/>
              </g>
              <path class="cls-43" d="M1648.78,610.78l2.42,2.58c.58.62,1.57.62,2.15,0l1.35-1.43c.58-.62,1.57-.62,2.15,0l1.22,1.3c.63.67,1.71.61,2.26-.12l2.58-3.43c.4-.53.4-1.25,0-1.78l-3.2-4.25c-.28-.37-.72-.59-1.18-.59h-20.21c-.54,0-1.01-.3-1.29-.76-2.03-3.35-5.53-5.54-9.54-5.54-6.25,0-11.31,5.38-11.31,12.02s5.06,12.02,11.31,12.02c4.01,0,7.51-2.19,9.54-5.54.28-.46.75-.76,1.29-.76h1.99c.41,0,.8-.17,1.08-.47l.64-.68c.58-.62,1.57-.62,2.15,0h0c.58.62,1.57.62,2.15,0l2.42-2.58h0ZM1622.66,612.21c-1.78,0-3.23-1.55-3.23-3.44s1.45-3.44,3.23-3.44,3.23,1.55,3.23,3.44-1.45,3.44-3.23,3.44h0Z"/>
            </g>
            <text class="cls-55" transform="translate(1684.7358 628.6397)"><tspan x="0" y="0">*</tspan></text>
            <text class="cls-55" transform="translate(1795.4008 623.3233)"><tspan x="0" y="0">=</tspan></text>
          </g>
          <g id="dh1">
            <g>
              <g class="cls-111">
                <ellipse class="cls-23" cx="1639.75" cy="513.41" rx="32.77" ry="33.16"/>
                <ellipse class="cls-17" cx="1639.75" cy="513.41" rx="32.77" ry="33.16"/>
              </g>
              <path class="cls-50" d="M1650,515.42l2.42,2.58c.58.62,1.57.62,2.15,0l1.35-1.43c.58-.62,1.57-.62,2.15,0l1.22,1.3c.63.67,1.71.61,2.26-.12l2.58-3.43c.4-.53.4-1.25,0-1.78l-3.2-4.25c-.28-.37-.72-.59-1.18-.59h-20.21c-.54,0-1.01-.3-1.29-.76-2.03-3.35-5.53-5.54-9.54-5.54-6.25,0-11.31,5.38-11.31,12.02s5.06,12.02,11.31,12.02c4.01,0,7.51-2.19,9.54-5.54.28-.46.75-.76,1.29-.76h1.99c.41,0,.8-.17,1.08-.47l.64-.68c.58-.62,1.57-.62,2.15,0h0c.58.62,1.57.62,2.15,0l2.42-2.58h0ZM1623.88,516.85c-1.78,0-3.23-1.55-3.23-3.44s1.45-3.44,3.23-3.44,3.23,1.55,3.23,3.44-1.45,3.44-3.23,3.44h0Z"/>
            </g>
            <g>
              <g class="cls-109">
                <ellipse class="cls-23" cx="1747.14" cy="513.87" rx="33.58" ry="33.62"/>
                <ellipse class="cls-22" cx="1747.14" cy="513.87" rx="33.58" ry="33.62"/>
              </g>
              <path class="cls-43" d="M1748.18,525.14v2.82h-2.08v-2.82c-1.77-.63-2.85-2.87-1.43-5.19,2.59-2.28,5.6-.4,5.6,2.16,0,1.38-.89,2.55-2.08,3.03h0ZM1739.32,505.63c0-6.96,8.69-11.81,15.63-3.89v9.79s-7.82-.58-7.82-.58l-7.82.58v-5.9h0ZM1758.08,511.74v-6.11c0-6.17-4.9-11.17-10.94-11.17s-10.94,5-10.94,11.17v6.11l-3.65.27v20.2l14.59,1.06,14.59-1.06v-20.2l-3.65-.27h0Z"/>
            </g>
            <text class="cls-55" transform="translate(1686.1276 533.276)"><tspan x="0" y="0">*</tspan></text>
            <g>
              <g class="cls-92">
                <rect class="cls-23" x="1839.09" y="478.98" width="67.44" height="66.65" rx="13.53" ry="13.53"/>
                <rect class="cls-15" x="1839.09" y="478.98" width="67.44" height="66.65" rx="13.53" ry="13.53"/>
              </g>
              <text class="cls-9" transform="translate(1847.7185 521.6375) scale(1.0119 1)"><tspan x="0" y="0">DH</tspan></text>
            </g>
            <text class="cls-55" transform="translate(1795.7919 526.8531)"><tspan x="0" y="0">=</tspan></text>
          </g>
        </g>
        <g id="new-keys">
          <g>
            <line class="cls-14" x1="2091.92" y1="419.29" x2="1941.91" y2="502.6"/>
            <path class="cls-56" d="M2067,416.65c-.05.83.58,1.54,1.41,1.59l22.91,1.38-10.94,20.18c-.39.73-.12,1.64.6,2.03.73.39,1.64.12,2.03-.6l12.06-22.25c.24-.45.24-1,0-1.44s-.71-.74-1.22-.77l-25.26-1.52c-.29-.02-.58.05-.82.19-.43.24-.74.69-.77,1.22Z"/>
          </g>
          <g>
            <g class="cls-47">
              <rect class="cls-23" x="2120.18" y="379.9" width="206.81" height="102.64" rx="13.53" ry="13.53"/>
              <rect class="cls-13" x="2120.18" y="379.9" width="206.81" height="102.64" rx="13.53" ry="13.53"/>
            </g>
            <g>
              <g class="cls-35">
                <ellipse class="cls-23" cx="2265.4" cy="431.93" rx="33.58" ry="33.62"/>
                <ellipse class="cls-15" cx="2265.4" cy="431.93" rx="33.58" ry="33.62"/>
              </g>
              <path class="cls-8" d="M2266.44,443.2v2.82h-2.08v-2.82c-1.77-.63-2.85-2.87-1.43-5.19,2.59-2.28,5.6-.4,5.6,2.16,0,1.38-.89,2.55-2.08,3.03h0ZM2257.58,423.69c0-6.96,8.69-11.81,15.63-3.89v9.79s-7.82-.58-7.82-.58l-7.82.58v-5.9h0ZM2276.34,429.81v-6.11c0-6.17-4.9-11.17-10.94-11.17s-10.94,5-10.94,11.17v6.11l-3.65.27v20.2l14.59,1.06,14.59-1.06v-20.2l-3.65-.27h0Z"/>
            </g>
            <g>
              <g class="cls-4">
                <ellipse class="cls-23" cx="2174.53" cy="431.93" rx="32.77" ry="33.16"/>
                <ellipse class="cls-15" cx="2174.53" cy="431.93" rx="32.77" ry="33.16"/>
              </g>
              <path class="cls-8" d="M2184.78,433.94l2.42,2.58c.58.62,1.57.62,2.15,0l1.35-1.43c.58-.62,1.57-.62,2.15,0l1.22,1.3c.63.67,1.71.61,2.26-.12l2.58-3.43c.4-.53.4-1.25,0-1.78l-3.2-4.25c-.28-.37-.72-.59-1.18-.59h-20.21c-.54,0-1.01-.3-1.29-.76-2.03-3.35-5.53-5.54-9.54-5.54-6.25,0-11.31,5.38-11.31,12.02s5.06,12.02,11.31,12.02c4.01,0,7.51-2.19,9.54-5.54.28-.46.75-.76,1.29-.76h1.99c.41,0,.8-.17,1.08-.47l.64-.68c.58-.62,1.57-.62,2.15,0h0c.58.62,1.57.62,2.15,0l2.42-2.58h0ZM2158.66,435.37c-1.78,0-3.23-1.55-3.23-3.44s1.45-3.44,3.23-3.44,3.23,1.55,3.23,3.44-1.45,3.44-3.23,3.44h0Z"/>
            </g>
          </g>
        </g>
        <g id="blind-fact">
          <path class="cls-16" d="M2147.3,566.72h152.58v104.17h-152.58v-104.17ZM2147.3,566.72l70.54,68.5c3.22,3.12,8.3,3.12,11.52,0l70.51-68.5M2147.3,670.89l53.87-51.86M2299.88,670.89l-54.06-51.65"/>
          <g>
            <line class="cls-14" x1="2091.95" y1="612.47" x2="1941.91" y2="524.98"/>
            <path class="cls-56" d="M2081.49,589.7c-.74.38-1.03,1.28-.65,2.02l10.51,20.4-22.93.9c-.83.03-1.47.73-1.44,1.56.03.83.74,1.47,1.56,1.44l25.29-.99c.51-.02.98-.3,1.24-.74.26-.44.27-.99.04-1.44l-11.59-22.49c-.14-.26-.34-.47-.58-.61-.43-.25-.97-.28-1.44-.04Z"/>
          </g>
        </g>
      </g>
      <text class="cls-54" transform="translate(427.4112 1275.7376)"><tspan class="cls-3" x="0" y="0">t</tspan><tspan x="14.02" y="0">-unique Signatu</tspan><tspan class="cls-94" x="292.05" y="0">r</tspan><tspan x="305.97" y="0">es</tspan></text>
      <text class="cls-54" transform="translate(652.2 69.65)"><tspan class="cls-67" x="0" y="0">C</tspan><tspan class="cls-39" x="23.73" y="0">u</tspan><tspan class="cls-112" x="46.4" y="0">t</tspan><tspan x="60.42" y="0">-a</tspan><tspan class="cls-82" x="93.52" y="0">n</tspan><tspan class="cls-87" x="116.52" y="0">d</tspan><tspan class="cls-72" x="139.36" y="0">-</tspan><tspan x="152.23" y="0">C</tspan><tspan class="cls-104" x="176.42" y="0">h</tspan><tspan class="cls-39" x="199.42" y="0">oose</tspan></text>
    </g>
  </g>
  <g id="PQ">
    <g>
      <rect class="cls-14" x="1536.39" y="771.31" width="1008" height="658.72" rx="69.29" ry="69.29"/>
      <g id="pq-init">
        <rect class="cls-11" x="1599.48" y="855.02" width="352.95" height="142.47" rx="22.75" ry="22.75"/>
        <g>
          <g class="cls-1">
            <ellipse class="cls-110" cx="1661.55" cy="922.36" rx="40.39" ry="41.09"/>
          </g>
          <ellipse class="cls-20" cx="1661.74" cy="922.33" rx="36.18" ry="36.89"/>
          <g>
            <path class="cls-23" d="M1652.85,917.27h-7.38v-1.25c0-1.33-.09-2.19-.26-2.6-.17-.41-.54-.61-1.1-.61-.45,0-.79.18-1.01.53s-.34.88-.34,1.59c0,1.18.23,2,.69,2.47.45.47,1.78,1.39,3.98,2.75,1.88,1.15,3.16,2.04,3.84,2.65.68.61,1.26,1.48,1.73,2.6.47,1.12.7,2.52.7,4.19,0,2.68-.63,4.78-1.9,6.3-1.27,1.52-3.17,2.47-5.7,2.83v2.83h-3.4v-2.92c-1.97-.2-3.7-.97-5.17-2.32-1.47-1.34-2.21-3.69-2.21-7.04v-1.47h7.38v1.84c0,2.02.08,3.28.23,3.77.15.49.52.73,1.11.73.5,0,.87-.17,1.11-.51.24-.34.37-.85.37-1.52,0-1.69-.12-2.89-.35-3.62-.23-.73-1.02-1.52-2.38-2.37-2.25-1.44-3.79-2.5-4.6-3.17s-1.51-1.63-2.1-2.85c-.59-1.23-.89-2.62-.89-4.17,0-2.24.62-4,1.87-5.28,1.25-1.28,3.12-2.06,5.62-2.36v-2.4h3.4v2.4c2.28.3,3.98,1.08,5.12,2.33,1.13,1.26,1.7,3,1.7,5.22,0,.31-.02.78-.07,1.41Z"/>
            <path class="cls-23" d="M1667.42,908.49v30.11h-7.38v-16.14c0-2.33-.06-3.73-.17-4.2-.11-.47-.41-.83-.9-1.07-.49-.24-1.59-.36-3.3-.36h-.73v-3.51c3.57-.78,6.28-2.39,8.13-4.82h4.35Z"/>
            <path class="cls-23" d="M1687.7,918.68v10.04c0,2.28-.12,3.94-.37,4.98-.24,1.04-.75,2.01-1.52,2.92-.77.9-1.69,1.56-2.78,1.95-1.08.4-2.3.59-3.64.59-1.77,0-3.24-.21-4.41-.62-1.17-.42-2.1-1.06-2.8-1.94-.69-.88-1.19-1.81-1.48-2.78-.29-.97-.44-2.52-.44-4.64v-10.51c0-2.76.23-4.83.7-6.21.47-1.38,1.4-2.48,2.8-3.31,1.39-.83,3.09-1.25,5.07-1.25,1.62,0,3.07.29,4.35.87,1.28.58,2.24,1.28,2.87,2.11.63.83,1.06,1.77,1.29,2.81.23,1.04.34,2.7.34,4.98ZM1680.32,916.15c0-1.6-.08-2.6-.23-3-.15-.4-.51-.6-1.07-.6s-.91.21-1.09.64-.26,1.42-.26,2.97v14.69c0,1.75.08,2.8.25,3.16.16.36.52.54,1.07.54s.91-.21,1.08-.63c.17-.42.26-1.37.26-2.84v-14.91Z"/>
          </g>
        </g>
        <g>
          <g class="cls-108">
            <rect class="cls-23" x="1723.98" y="873.77" width="206.81" height="102.64" rx="13.53" ry="13.53"/>
            <rect class="cls-13" x="1723.98" y="873.77" width="206.81" height="102.64" rx="13.53" ry="13.53"/>
          </g>
          <g>
            <g class="cls-107">
              <ellipse class="cls-23" cx="1869.2" cy="925.8" rx="33.58" ry="33.62"/>
              <ellipse class="cls-22" cx="1869.2" cy="925.8" rx="33.58" ry="33.62"/>
            </g>
            <path class="cls-43" d="M1870.24,937.07v2.82h-2.08v-2.82c-1.77-.63-2.85-2.87-1.43-5.19,2.59-2.28,5.6-.4,5.6,2.16,0,1.38-.89,2.55-2.08,3.03h0ZM1861.38,917.56c0-6.96,8.69-11.81,15.63-3.89v9.79s-7.82-.58-7.82-.58l-7.82.58v-5.9h0ZM1880.14,923.67v-6.11c0-6.17-4.9-11.17-10.94-11.17s-10.94,5-10.94,11.17v6.11l-3.65.27v20.2l14.59,1.06,14.59-1.06v-20.2l-3.65-.27h0Z"/>
          </g>
          <g>
            <g class="cls-26">
              <ellipse class="cls-23" cx="1778.33" cy="925.8" rx="32.77" ry="33.16"/>
              <ellipse class="cls-22" cx="1778.33" cy="925.8" rx="32.77" ry="33.16"/>
            </g>
            <path class="cls-43" d="M1788.58,927.8l2.42,2.58c.58.62,1.57.62,2.15,0l1.35-1.43c.58-.62,1.57-.62,2.15,0l1.22,1.3c.63.67,1.71.61,2.26-.12l2.58-3.43c.4-.53.4-1.25,0-1.78l-3.2-4.25c-.28-.37-.72-.59-1.18-.59h-20.21c-.54,0-1.01-.3-1.29-.76-2.03-3.35-5.53-5.54-9.54-5.54-6.25,0-11.31,5.38-11.31,12.02s5.06,12.02,11.31,12.02c4.01,0,7.51-2.19,9.54-5.54.28-.46.75-.76,1.29-.76h1.99c.41,0,.8-.17,1.08-.47l.64-.68c.58-.62,1.57-.62,2.15,0h0c.58.62,1.57.62,2.15,0l2.42-2.58h0ZM1762.46,929.23c-1.78,0-3.23-1.55-3.23-3.44s1.45-3.44,3.23-3.44,3.23,1.55,3.23,3.44-1.45,3.44-3.23,3.44h0Z"/>
          </g>
        </g>
        <g id="rd-2" data-name="rd">
          <g id="green-2" data-name="green">
            <rect class="cls-7" x="2135.52" y="858" width="352.95" height="142.47" rx="22.75" ry="22.75"/>
            <g>
              <g class="cls-91">
                <rect class="cls-23" x="2260.03" y="876.74" width="206.81" height="102.64" rx="13.53" ry="13.53"/>
                <rect class="cls-13" x="2260.03" y="876.74" width="206.81" height="102.64" rx="13.53" ry="13.53"/>
              </g>
              <g>
                <g class="cls-37">
                  <ellipse class="cls-23" cx="2405.24" cy="928.77" rx="33.58" ry="33.62"/>
                  <ellipse class="cls-15" cx="2405.24" cy="928.77" rx="33.58" ry="33.62"/>
                </g>
                <path class="cls-8" d="M2406.28,940.05v2.82h-2.08v-2.82c-1.77-.63-2.85-2.87-1.43-5.19,2.59-2.28,5.6-.4,5.6,2.16,0,1.38-.89,2.55-2.08,3.03h0ZM2397.43,920.53c0-6.96,8.69-11.81,15.63-3.89v9.79s-7.82-.58-7.82-.58l-7.82.58v-5.9h0ZM2416.18,926.65v-6.11c0-6.17-4.9-11.17-10.94-11.17s-10.94,5-10.94,11.17v6.11l-3.65.27v20.2l14.59,1.06,14.59-1.06v-20.2l-3.65-.27h0Z"/>
              </g>
              <g>
                <g class="cls-44">
                  <ellipse class="cls-23" cx="2314.37" cy="928.77" rx="32.77" ry="33.16"/>
                  <ellipse class="cls-15" cx="2314.37" cy="928.77" rx="32.77" ry="33.16"/>
                </g>
                <path class="cls-8" d="M2324.62,930.78l2.42,2.58c.58.62,1.57.62,2.15,0l1.35-1.43c.58-.62,1.57-.62,2.15,0l1.22,1.3c.63.67,1.71.61,2.26-.12l2.58-3.43c.4-.53.4-1.25,0-1.78l-3.2-4.25c-.28-.37-.72-.59-1.18-.59h-20.21c-.54,0-1.01-.3-1.29-.76-2.03-3.35-5.53-5.54-9.54-5.54-6.25,0-11.31,5.38-11.31,12.02s5.06,12.02,11.31,12.02c4.01,0,7.51-2.19,9.54-5.54.28-.46.75-.76,1.29-.76h1.99c.41,0,.8-.17,1.08-.47l.64-.68c.58-.62,1.57-.62,2.15,0h0c.58.62,1.57.62,2.15,0l2.42-2.58h0ZM2298.5,932.21c-1.78,0-3.23-1.55-3.23-3.44s1.45-3.44,3.23-3.44,3.23,1.55,3.23,3.44-1.45,3.44-3.23,3.44h0Z"/>
              </g>
            </g>
            <g>
              <g class="cls-89">
                <ellipse class="cls-110" cx="2200.9" cy="928.4" rx="41.92" ry="41.78"/>
              </g>
              <path class="cls-20" d="M2234.25,928.48c0,20.87-14.9,33.16-33.27,33.16s-33.27-14.85-33.27-33.16,14.9-33.16,33.27-33.16,33.27,14.85,33.27,33.16Z"/>
              <g>
                <path class="cls-23" d="M2200.07,922.64h-8.34v-1.38c0-1.47-.1-2.43-.29-2.88-.19-.45-.61-.68-1.24-.68-.51,0-.89.2-1.15.59-.25.39-.38.98-.38,1.76,0,1.3.26,2.22.78,2.74.51.52,2.01,1.54,4.5,3.04,2.12,1.28,3.56,2.25,4.33,2.93.77.68,1.42,1.64,1.95,2.88.53,1.24.79,2.79.79,4.64,0,2.96-.72,5.29-2.15,6.97-1.43,1.69-3.58,2.73-6.44,3.13v3.13h-3.84v-3.23c-2.23-.22-4.18-1.07-5.84-2.56s-2.5-4.08-2.5-7.79v-1.63h8.34v2.04c0,2.24.09,3.62.26,4.17.17.54.59.81,1.25.81.56,0,.98-.19,1.26-.57.28-.38.41-.94.41-1.68,0-1.87-.13-3.2-.39-4-.26-.8-1.16-1.68-2.68-2.62-2.55-1.59-4.28-2.76-5.19-3.51-.92-.75-1.71-1.8-2.37-3.16-.67-1.36-1-2.89-1-4.61,0-2.48.71-4.43,2.12-5.84,1.41-1.41,3.53-2.28,6.35-2.61v-2.65h3.84v2.65c2.57.33,4.5,1.19,5.78,2.58,1.28,1.39,1.92,3.32,1.92,5.77,0,.34-.03.86-.08,1.56Z"/>
                <path class="cls-23" d="M2221.87,912.93v5.33h-10.34v5.66c1.29-1.52,2.96-2.28,5-2.28,2.3,0,4.04.64,5.21,1.92,1.18,1.28,1.76,3.75,1.76,7.4v4.75c0,2.36-.11,4.09-.34,5.2-.23,1.1-.71,2.13-1.46,3.07s-1.78,1.66-3.11,2.16c-1.33.5-2.95.75-4.86.75-2.15,0-4.04-.37-5.68-1.12s-2.8-1.86-3.49-3.34-1.03-3.77-1.03-6.87v-1.81h8.34v2.08c0,2.15.08,3.68.23,4.59.15.91.67,1.36,1.57,1.36.41,0,.75-.13,1-.39s.39-.54.41-.84.04-1.61.07-3.93v-6.6c0-1.25-.13-2.1-.39-2.55-.26-.45-.7-.68-1.3-.68-.39,0-.71.12-.97.35s-.43.48-.51.75c-.08.27-.11.89-.11,1.86h-8.26l.35-16.79h17.9Z"/>
              </g>
            </g>
          </g>
          <g>
            <g>
              <line class="cls-14" x1="2108.77" y1="924.45" x2="1984.46" y2="924.76"/>
              <path class="cls-56" d="M2088.23,910.1c-.44.7-.23,1.63.47,2.07l19.39,12.28-19.33,12.38c-.7.45-.9,1.38-.45,2.07.45.7,1.38.9,2.07.45l21.31-13.65c.43-.28.69-.75.69-1.27,0-.51-.26-.99-.7-1.26l-21.38-13.54c-.25-.16-.53-.23-.8-.23-.5,0-.98.25-1.27.7Z"/>
            </g>
            <text class="cls-58" transform="translate(2012.2245 837.9254)"><tspan x="0" y="0">N</tspan><tspan class="cls-27" x="21.82" y="0">e</tspan><tspan x="38.58" y="0">w</tspan><tspan x="-23.52" y="32.4">Re</tspan><tspan class="cls-33" x="13.36" y="32.4">f</tspan><tspan class="cls-80" x="25.97" y="32.4">r</tspan><tspan x="37.37" y="32.4">esh</tspan><tspan x="-13.95" y="64.8">De</tspan><tspan class="cls-101" x="25.39" y="64.8">r</tspan><tspan x="36.92" y="64.8">i</tspan><tspan class="cls-53" x="45.05" y="64.8">v</tspan><tspan x="60.79" y="64.8">e</tspan></text>
          </g>
        </g>
      </g>
      <g id="derive">
        <g>
          <line class="cls-14" x1="2106.09" y1="1092.89" x2="1956.09" y2="1176.2"/>
          <path class="cls-56" d="M2081.18,1090.25c-.05.83.58,1.54,1.41,1.59l22.91,1.38-10.94,20.18c-.39.73-.12,1.64.6,2.03.73.39,1.64.12,2.03-.6l12.06-22.25c.24-.45.24-1,0-1.44-.25-.45-.71-.74-1.22-.77l-25.26-1.52c-.29-.02-.58.05-.82.19-.43.24-.74.69-.77,1.22Z"/>
        </g>
        <g>
          <g class="cls-106">
            <rect class="cls-23" x="2134.36" y="1053.5" width="206.81" height="102.64" rx="13.53" ry="13.53"/>
            <rect class="cls-13" x="2134.36" y="1053.5" width="206.81" height="102.64" rx="13.53" ry="13.53"/>
          </g>
          <g>
            <g class="cls-81">
              <ellipse class="cls-23" cx="2279.58" cy="1105.53" rx="33.58" ry="33.62"/>
              <ellipse class="cls-15" cx="2279.58" cy="1105.53" rx="33.58" ry="33.62"/>
            </g>
            <path class="cls-8" d="M2280.62,1116.8v2.82h-2.08v-2.82c-1.77-.63-2.85-2.87-1.43-5.19,2.59-2.28,5.6-.4,5.6,2.16,0,1.38-.89,2.55-2.08,3.03h0ZM2271.76,1097.29c0-6.96,8.69-11.81,15.63-3.89v9.79s-7.82-.58-7.82-.58l-7.82.58v-5.9h0ZM2290.52,1103.4v-6.11c0-6.17-4.9-11.17-10.94-11.17s-10.94,5-10.94,11.17v6.11l-3.65.27v20.2l14.59,1.06,14.59-1.06v-20.2l-3.65-.27h0Z"/>
          </g>
          <g>
            <g class="cls-40">
              <ellipse class="cls-23" cx="2188.71" cy="1105.53" rx="32.77" ry="33.16"/>
              <ellipse class="cls-15" cx="2188.71" cy="1105.53" rx="32.77" ry="33.16"/>
            </g>
            <path class="cls-8" d="M2198.95,1107.53l2.42,2.58c.58.62,1.57.62,2.15,0l1.35-1.43c.58-.62,1.57-.62,2.15,0l1.22,1.3c.63.67,1.71.61,2.26-.12l2.58-3.43c.4-.53.4-1.25,0-1.78l-3.2-4.25c-.28-.37-.72-.59-1.18-.59h-20.21c-.54,0-1.01-.3-1.29-.76-2.03-3.35-5.53-5.54-9.54-5.54-6.25,0-11.31,5.38-11.31,12.02s5.06,12.02,11.31,12.02c4.01,0,7.51-2.19,9.54-5.54.28-.46.75-.76,1.29-.76h1.99c.41,0,.8-.17,1.08-.47l.64-.68c.58-.62,1.57-.62,2.15,0h0c.58.62,1.57.62,2.15,0l2.42-2.58h0ZM2172.83,1108.97c-1.78,0-3.23-1.55-3.23-3.44s1.45-3.44,3.23-3.44,3.23,1.55,3.23,3.44-1.45,3.44-3.23,3.44h0Z"/>
          </g>
        </g>
        <path class="cls-16" d="M2161.48,1240.32h152.58v104.17h-152.58v-104.17ZM2161.48,1240.32l70.54,68.5c3.22,3.12,8.3,3.12,11.52,0l70.51-68.5M2161.48,1344.49l53.87-51.86M2314.05,1344.49l-54.06-51.65"/>
        <g>
          <line class="cls-14" x1="2106.13" y1="1286.07" x2="1956.09" y2="1198.58"/>
          <path class="cls-56" d="M2095.67,1263.3c-.74.38-1.03,1.28-.65,2.02l10.51,20.4-22.93.9c-.83.03-1.47.73-1.44,1.56s.74,1.47,1.56,1.44l25.29-.99c.51-.02.98-.3,1.24-.74.26-.44.27-.99.04-1.44l-11.59-22.49c-.14-.26-.34-.47-.58-.61-.43-.25-.97-.28-1.44-.04Z"/>
        </g>
      </g>
      <g id="sig">
        <g>
          <g>
            <g class="cls-105">
              <rect class="cls-23" x="1641.19" y="1118.3" width="252.74" height="136.4" rx="14.96" ry="14.96"/>
              <rect class="cls-13" x="1641.19" y="1118.3" width="252.74" height="136.4" rx="14.96" ry="14.96"/>
            </g>
            <path class="cls-19" d="M1759.56,1254.86h-94.24c-24.13-.16-24.13-10.72-24.13-23.95v-88.5c0-18.61,3.38-24.11,24.13-23.95h94.24"/>
          </g>
          <g>
            <ellipse class="cls-12" cx="1703.13" cy="1207.69" rx="37.13" ry="36.39"/>
            <path class="cls-43" d="M1714.54,1209.82l4,3.95,4-3.95,4,3.95,4.93-6.07-4.93-6.07h-24.95c-2.22-4.01-6.47-6.68-11.4-6.68-7.15,0-12.94,5.71-12.94,12.75s5.79,12.75,12.94,12.75c4.93,0,9.18-2.67,11.4-6.68h4l2.46-2.43,2.46,2.43,4-3.95h0ZM1684.66,1211.34c-2.03,0-3.7-1.64-3.7-3.64s1.66-3.64,3.7-3.64,3.7,1.64,3.7,3.64-1.66,3.64-3.7,3.64h0Z"/>
          </g>
        </g>
        <text class="cls-70" transform="translate(1782.0323 1177.1405)"><tspan x="0" y="0">Public</tspan><tspan class="cls-71" x="-18.32" y="32.4">m</tspan><tspan x="10.38" y="32.4">ess</tspan><tspan class="cls-71" x="53.09" y="32.4">a</tspan><tspan class="cls-66" x="69.08" y="32.4">ge</tspan></text>
        <text class="cls-24" transform="translate(1665.3964 1156.1397)"><tspan class="cls-28" x="0" y="0">t</tspan><tspan class="cls-48" x="13.6" y="0">-</tspan><tspan x="25.5" y="0">Sig</tspan></text>
      </g>
    </g>
  </g>
  <g id="t-sig">
    <g>
      <rect class="cls-14" x="98.24" y="751.74" width="1355.16" height="781.28" rx="69.29" ry="69.29"/>
      <g id="_1" data-name="1">
        <g>
          <g class="cls-64">
            <ellipse class="cls-23" cx="255.28" cy="1154.8" rx="81.77" ry="79.12"/>
          </g>
          <text class="cls-68" transform="translate(244.9058 1204.9779) scale(1.0335 1)"><tspan x="0" y="0">A</tspan></text>
          <path class="cls-32" d="M227.49,1172.05c0-10.05,13.9-10.05,20.84-16.75,3.47-3.35-6.95-3.35-6.95-20.1,0-11.17,4.63-16.75,13.9-16.75s13.9,5.58,13.9,16.75c0,16.75-10.42,16.75-6.95,20.1,6.95,6.7,20.84,6.7,20.84,16.75"/>
        </g>
        <g class="cls-6">
          <path class="cls-23" d="M415.22,1155.78c0-20.1,16.62-36.39,37.13-36.39s37.13,16.29,37.13,36.39-16.62,36.39-37.13,36.39-37.13-16.29-37.13-36.39"/>
          <path class="cls-22" d="M415.22,1155.78c0-20.1,16.62-36.39,37.13-36.39s37.13,16.29,37.13,36.39-16.62,36.39-37.13,36.39-37.13-16.29-37.13-36.39"/>
        </g>
        <path class="cls-43" d="M463.76,1157.91l4,3.95,4-3.95,4,3.95,4.93-6.07-4.93-6.07h-24.95c-2.22-4.01-6.47-6.68-11.4-6.68-7.15,0-12.94,5.71-12.94,12.75s5.79,12.75,12.94,12.75c4.93,0,9.18-2.67,11.4-6.68h4l2.46-2.43,2.46,2.43,4-3.95h0ZM433.88,1159.43c-2.03,0-3.7-1.64-3.7-3.64s1.66-3.64,3.7-3.64,3.7,1.64,3.7,3.64-1.66,3.64-3.7,3.64h0Z"/>
        <text class="cls-70" transform="translate(631.6432 1145.1632)"><tspan x="0" y="0">Public</tspan><tspan class="cls-71" x="-18.32" y="32.4">m</tspan><tspan x="10.38" y="32.4">ess</tspan><tspan class="cls-71" x="53.09" y="32.4">a</tspan><tspan class="cls-66" x="69.08" y="32.4">ge</tspan></text>
        <text class="cls-57" transform="translate(526.0442 1190.5594) scale(1.0471 1)"><tspan x="0" y="0">+</tspan></text>
      </g>
      <g id="_2" data-name="2">
        <g id="sig-2" data-name="sig">
          <g>
            <g>
              <g class="cls-51">
                <rect class="cls-23" x="1034.95" y="837.77" width="252.74" height="136.4" rx="14.96" ry="14.96"/>
                <rect class="cls-13" x="1034.95" y="837.77" width="252.74" height="136.4" rx="14.96" ry="14.96"/>
              </g>
              <path class="cls-19" d="M1153.32,974.33h-94.24c-24.13-.16-24.13-10.72-24.13-23.95v-88.5c0-18.61,3.38-24.11,24.13-23.95h94.24"/>
            </g>
            <g>
              <ellipse class="cls-12" cx="1096.89" cy="927.16" rx="37.13" ry="36.39"/>
              <path class="cls-43" d="M1108.3,929.29l4,3.95,4-3.95,4,3.95,4.93-6.07-4.93-6.07h-24.95c-2.22-4.01-6.47-6.68-11.4-6.68-7.15,0-12.94,5.71-12.94,12.75s5.79,12.75,12.94,12.75c4.93,0,9.18-2.67,11.4-6.68h4l2.46-2.43,2.46,2.43,4-3.95h0ZM1078.42,930.81c-2.03,0-3.7-1.64-3.7-3.64s1.66-3.64,3.7-3.64,3.7,1.64,3.7,3.64-1.66,3.64-3.7,3.64h0Z"/>
            </g>
          </g>
          <text class="cls-70" transform="translate(1175.7933 896.6097)"><tspan x="0" y="0">Public</tspan><tspan class="cls-71" x="-18.32" y="32.4">m</tspan><tspan x="10.38" y="32.4">ess</tspan><tspan class="cls-71" x="53.09" y="32.4">a</tspan><tspan class="cls-66" x="69.08" y="32.4">ge</tspan></text>
        </g>
        <g id="sig-3" data-name="sig">
          <g>
            <g>
              <g class="cls-86">
                <rect class="cls-23" x="1034.34" y="1014.92" width="252.74" height="136.4" rx="14.96" ry="14.96"/>
                <rect class="cls-13" x="1034.34" y="1014.92" width="252.74" height="136.4" rx="14.96" ry="14.96"/>
              </g>
              <path class="cls-19" d="M1152.72,1151.48h-94.24c-24.13-.16-24.13-10.72-24.13-23.95v-88.5c0-18.61,3.38-24.11,24.13-23.95h94.24"/>
            </g>
            <g>
              <ellipse class="cls-12" cx="1096.29" cy="1104.32" rx="37.13" ry="36.39"/>
              <path class="cls-43" d="M1107.7,1106.44l4,3.95,4-3.95,4,3.95,4.93-6.07-4.93-6.07h-24.95c-2.22-4.01-6.47-6.68-11.4-6.68-7.15,0-12.94,5.71-12.94,12.75s5.79,12.75,12.94,12.75c4.93,0,9.18-2.67,11.4-6.68h4l2.46-2.43,2.46,2.43,4-3.95h0ZM1077.81,1107.96c-2.03,0-3.7-1.64-3.7-3.64s1.66-3.64,3.7-3.64,3.7,1.64,3.7,3.64-1.66,3.64-3.7,3.64h0Z"/>
            </g>
          </g>
          <text class="cls-70" transform="translate(1175.1903 1073.7628)"><tspan x="0" y="0">Public</tspan><tspan class="cls-71" x="-18.32" y="32.4">m</tspan><tspan x="10.38" y="32.4">ess</tspan><tspan class="cls-71" x="53.09" y="32.4">a</tspan><tspan class="cls-66" x="69.08" y="32.4">ge</tspan></text>
        </g>
        <g id="sig-4" data-name="sig">
          <g>
            <g>
              <g class="cls-90">
                <rect class="cls-23" x="1038.74" y="1323.07" width="252.74" height="136.4" rx="14.96" ry="14.96"/>
                <rect class="cls-13" x="1038.74" y="1323.07" width="252.74" height="136.4" rx="14.96" ry="14.96"/>
              </g>
              <path class="cls-19" d="M1157.11,1459.63h-94.24c-24.13-.16-24.13-10.72-24.13-23.95v-88.5c0-18.61,3.38-24.11,24.13-23.95h94.24"/>
            </g>
            <g>
              <ellipse class="cls-12" cx="1100.69" cy="1412.47" rx="37.13" ry="36.39"/>
              <path class="cls-43" d="M1112.09,1414.59l4,3.95,4-3.95,4,3.95,4.93-6.07-4.93-6.07h-24.95c-2.22-4.01-6.47-6.68-11.4-6.68-7.15,0-12.94,5.71-12.94,12.75s5.79,12.75,12.94,12.75c4.93,0,9.18-2.67,11.4-6.68h4l2.46-2.43,2.46,2.43,4-3.95h0ZM1082.21,1416.11c-2.03,0-3.7-1.64-3.7-3.64s1.66-3.64,3.7-3.64,3.7,1.64,3.7,3.64-1.66,3.64-3.7,3.64h0Z"/>
            </g>
          </g>
          <text class="cls-70" transform="translate(1179.5885 1381.9137)"><tspan x="0" y="0">Public</tspan><tspan class="cls-71" x="-18.32" y="32.4">m</tspan><tspan x="10.38" y="32.4">ess</tspan><tspan class="cls-71" x="53.09" y="32.4">a</tspan><tspan class="cls-66" x="69.08" y="32.4">ge</tspan></text>
        </g>
        <text class="cls-57" transform="translate(1178.2679 1274.8519) rotate(-90) scale(1.0471 1)"><tspan x="0" y="0">...</tspan></text>
        <path class="cls-56" d="M1347.4,887.96v-3.64c3.59-.33,6.09-.89,7.51-1.67,1.42-.78,2.48-2.63,3.17-5.55h3.92v37.6h-5.3v-26.74h-9.3Z"/>
        <path class="cls-56" d="M1347.29,1097.67c1.22-2.41,3.61-4.6,7.17-6.57l5.3-2.93c2.37-1.32,4.04-2.44,5-3.38,1.51-1.46,2.26-3.13,2.26-5.01,0-2.2-.69-3.94-2.07-5.23-1.38-1.29-3.22-1.94-5.52-1.94-3.41,0-5.76,1.23-7.07,3.69-.7,1.32-1.09,3.15-1.16,5.48h-5.05c.05-3.29.69-5.97,1.91-8.04,2.15-3.66,5.95-5.48,11.4-5.48,4.53,0,7.84,1.17,9.92,3.51s3.13,4.94,3.13,7.8c0,3.02-1.11,5.61-3.34,7.75-1.29,1.25-3.6,2.76-6.93,4.54l-3.78,2c-1.8.95-3.22,1.85-4.25,2.72-1.84,1.53-3,3.23-3.48,5.09h21.59v4.48h-27.14c.18-3.25.89-6.08,2.11-8.49Z"/>
        <path class="cls-56" d="M1358.71,1374.34h5.02v7.88h4.72v3.88h-4.72v18.43c0,.98.35,1.64,1.05,1.98.39.19,1.03.29,1.93.29.24,0,.5,0,.77-.01s.6-.03.97-.07v3.74c-.57.16-1.16.27-1.78.34-.62.07-1.28.11-2,.11-2.32,0-3.89-.57-4.72-1.7-.83-1.13-1.24-2.61-1.24-4.42v-18.69h-4v-3.88h4v-7.88Z"/>
        <text class="cls-57" transform="translate(802.0021 1190.5593) scale(1.0471 1)"><tspan x="0" y="0">=</tspan></text>
        <g>
          <path class="cls-18" d="M976.25,820.64s-87.08,7.52-32.94,245.01c19.81,86.89-12.78,88.07-12.78,88.07"/>
          <path class="cls-18" d="M980.19,1487.89s-87.08-7.52-32.94-245.01c19.14-83.95-14.78-88.15-12.78-88.07"/>
        </g>
      </g>
    </g>
    <text class="cls-24" transform="translate(1065.0783 1360.8897)"><tspan class="cls-28" x="0" y="0">t</tspan><tspan class="cls-48" x="13.6" y="0">-</tspan><tspan x="25.5" y="0">Sig</tspan></text>
    <text class="cls-24" transform="translate(1061.7092 876.5758)"><tspan class="cls-28" x="0" y="0">t</tspan><tspan class="cls-48" x="13.6" y="0">-</tspan><tspan x="25.5" y="0">Sig</tspan></text>
    <text class="cls-24" transform="translate(1057.3111 1051.5008)"><tspan class="cls-28" x="0" y="0">t</tspan><tspan class="cls-48" x="13.6" y="0">-</tspan><tspan x="25.5" y="0">Sig</tspan></text>
  </g>
</svg>