<svg width="96" height="96" xmlns="http://www.w3.org/2000/svg" xmlns:xlink="http://www.w3.org/1999/xlink" xml:space="preserve" overflow="hidden"><g transform="translate(-580 -455)"><path d="M627.27 507.56C627.27 508.681 626.361 509.59 625.24 509.59 624.119 509.59 623.21 508.681 623.21 507.56 623.21 506.439 624.119 505.53 625.24 505.53 626.361 505.53 627.27 506.439 627.27 507.56Z" fill="#0042B3"/><path d="M670.55 535 631.47 467C630.371 465.084 627.927 464.421 626.01 465.52 625.394 465.873 624.883 466.384 624.53 467L585.45 535C584.345 536.913 585.001 539.359 586.914 540.464 587.521 540.815 588.209 540.999 588.91 541L667.09 541C669.299 540.998 671.088 539.205 671.086 536.996 671.085 536.295 670.9 535.607 670.55 535ZM626.77 513.4 626.77 514.16C626.759 518.082 623.582 521.259 619.66 521.27L612.05 521.27 612.05 528 609 528 609 511.1 612 511.1 612 518.22 619.61 518.22C621.848 518.209 623.659 516.398 623.67 514.16L623.67 512.16 614.48 508.3 619.2 497.05 646.36 508.32 635.4 517ZM644.48 516.85 640.78 515.33 645.29 511.77 649 513.3Z" fill="#0042B3"/></g></svg>