<?xml version="1.0" encoding="UTF-8"?>
<svg id="Layer_2" data-name="Layer 2" xmlns="http://www.w3.org/2000/svg" viewBox="0 0 510.23 213.44">
  <defs>
    <style>
      .cls-1, .cls-2 {
        fill: #fff;
      }

      .cls-2 {
        fill-rule: evenodd;
      }
    </style>
  </defs>
  <g id="Frames">
    <g id="logo">
      <g id="circles">
        <path id="path2350" class="cls-2" d="M222.59,0c40.55,0,75.76,23,93.53,56.77h-15.13c-16.44-26.18-45.4-43.56-78.4-43.56-51.21,0-92.73,41.87-92.73,93.52,0,25.28,9.95,48.21,26.11,65.04-3.49,2.74-7.21,5.21-11.12,7.36-17.43-19.02-28.08-44.45-28.08-72.4C116.77,47.78,164.15,0,222.59,0ZM315.84,157.22c-17.86,33.47-52.91,56.23-93.24,56.23-2.74,0-5.45-.1-8.14-.31,7.94-3.82,15.38-8.52,22.21-13.96,26.84-4.12,49.9-19.85,63.98-41.95h15.19Z"/>
        <path id="path2352" class="cls-2" d="M164.21,0c2.74,0,5.45.11,8.14.31-7.94,3.82-15.38,8.52-22.21,13.96-44.53,6.84-78.66,45.62-78.66,92.45,0,34.9,18.96,65.33,47.06,81.4-4.14.65-8.39,1-12.72,1-3.22,0-6.4-.19-9.53-.56-23.17-19.58-37.9-48.97-37.9-81.84C58.39,47.78,105.76,0,164.21,0ZM178.28,199.17c26.84-4.12,49.9-19.85,63.98-41.95h15.19c-17.86,33.47-52.91,56.23-93.24,56.23-2.74,0-5.45-.1-8.14-.31,7.94-3.82,15.38-8.52,22.21-13.96h0ZM242.6,56.77c-8.16-13-19.42-23.84-32.73-31.45,4.14-.65,8.39-1,12.72-1,3.22,0,6.4.19,9.53.56,10.44,8.83,19.18,19.65,25.62,31.88h-15.13Z"/>
        <path id="path2354" class="cls-2" d="M105.82,0c2.77,0,5.51.11,8.23.32-7.92,3.81-15.35,8.5-22.17,13.94C47.28,21.04,13.09,59.85,13.09,106.72c0,51.65,41.52,93.52,92.73,93.52,32.77,0,61.57-17.14,78.06-43.02h15.18c-17.86,33.47-52.91,56.23-93.24,56.23C47.38,213.44,0,165.66,0,106.72S47.38,0,105.82,0ZM184.21,56.77c-3.41-5.43-7.36-10.49-11.78-15.09,3.49-2.74,7.21-5.21,11.12-7.36,6.17,6.74,11.49,14.28,15.79,22.45h-15.13Z"/>
      </g>
      <g id="letters">
        <path id="path2346" class="cls-1" d="M195.22,81.45h23.83v-12.34h-60.96v12.34h23.83v63.43h13.31v-63.43Z"/>
        <path id="path2362" class="cls-1" d="M238.16,126.58h35.52l7.62,18.29h13.95l-33.06-76.31h-12.23l-33.06,76.31h13.52l7.73-18.29ZM268.86,114.78h-25.86l12.88-30.31,12.99,30.31Z"/>
        <path id="path2356" class="cls-1" d="M319.2,69.11h-11.91v75.77h53.44v-12.01h-41.53v-63.75Z"/>
        <path id="path2360" class="cls-1" d="M430.16,69.11h-55.59v75.77h56.13v-12.01h-43.04v-20.24h37.67v-12.01h-37.67v-19.48h42.5v-12.01Z"/>
        <path id="path2358" class="cls-1" d="M494.45,93.84c0,3.91-1.4,7.04-4.2,9.34-2.79,2.33-6.56,3.48-11.31,3.48h-19.37v-25.54h19.26c4.95,0,8.8,1.06,11.52,3.21,2.74,2.13,4.1,5.3,4.1,9.51h0ZM510.23,144.88l-20.28-28.68c2.65-.72,5.06-1.75,7.24-3.08,2.18-1.34,4.06-2.96,5.63-4.87,1.57-1.91,2.81-4.11,3.7-6.6.89-2.49,1.34-5.32,1.34-8.5,0-3.68-.64-7.02-1.93-10.01-1.29-2.99-3.13-5.52-5.53-7.58-2.4-2.06-5.33-3.64-8.8-4.76-3.47-1.12-7.35-1.68-11.64-1.68h-33.49v75.77h13.09v-26.41h16.58l18.51,26.41h15.56Z"/>
      </g>
    </g>
  </g>
</svg>