<?xml version="1.0" encoding="UTF-8"?>
<svg id="Layer_2" data-name="Layer 2" xmlns="http://www.w3.org/2000/svg" viewBox="0 0 316.12 213.44">
  <defs>
    <style>
      .cls-1 {
        fill: #0042b3;
        fill-rule: evenodd;
      }
    </style>
  </defs>
  <g id="Frames">
    <g id="logo">
      <g id="circles">
        <path id="path2350" class="cls-1" d="M222.59,0c40.55,0,75.76,23,93.53,56.77h-15.13c-16.44-26.18-45.4-43.56-78.4-43.56-51.21,0-92.73,41.87-92.73,93.52,0,25.28,9.95,48.21,26.11,65.04-3.49,2.74-7.21,5.21-11.12,7.36-17.43-19.02-28.08-44.45-28.08-72.4C116.77,47.78,164.15,0,222.59,0ZM315.84,157.22c-17.86,33.47-52.91,56.23-93.24,56.23-2.74,0-5.45-.1-8.14-.31,7.94-3.82,15.38-8.52,22.21-13.96,26.84-4.12,49.9-19.85,63.98-41.95h15.19Z"/>
        <path id="path2352" class="cls-1" d="M164.21,0c2.74,0,5.45.11,8.14.31-7.94,3.82-15.38,8.52-22.21,13.96-44.53,6.84-78.66,45.62-78.66,92.45,0,34.9,18.96,65.33,47.06,81.4-4.14.65-8.39,1-12.72,1-3.22,0-6.4-.19-9.53-.56-23.17-19.58-37.9-48.97-37.9-81.84C58.39,47.78,105.76,0,164.21,0ZM178.28,199.17c26.84-4.12,49.9-19.85,63.98-41.95h15.19c-17.86,33.47-52.91,56.23-93.24,56.23-2.74,0-5.45-.1-8.14-.31,7.94-3.82,15.38-8.52,22.21-13.96h0ZM242.6,56.77c-8.16-13-19.42-23.84-32.73-31.45,4.14-.65,8.39-1,12.72-1,3.22,0,6.4.19,9.53.56,10.44,8.83,19.18,19.65,25.62,31.88h-15.13Z"/>
        <path id="path2354" class="cls-1" d="M105.82,0c2.77,0,5.51.11,8.23.32-7.92,3.81-15.35,8.5-22.17,13.94C47.28,21.04,13.09,59.85,13.09,106.72c0,51.65,41.52,93.52,92.73,93.52,32.77,0,61.57-17.14,78.06-43.02h15.18c-17.86,33.47-52.91,56.23-93.24,56.23C47.38,213.44,0,165.66,0,106.72S47.38,0,105.82,0ZM184.21,56.77c-3.41-5.43-7.36-10.49-11.78-15.09,3.49-2.74,7.21-5.21,11.12-7.36,6.17,6.74,11.49,14.28,15.79,22.45h-15.13Z"/>
      </g>
    </g>
  </g>
</svg>