<svg width="96" height="96" xmlns="http://www.w3.org/2000/svg" xmlns:xlink="http://www.w3.org/1999/xlink" xml:space="preserve" overflow="hidden"><g transform="translate(-603 -267)"><path d="M639.01 295 662.966 295 668.846 280.764C669.109 280.138 669.033 279.421 668.646 278.864 668.101 278.137 667.107 277.915 666.305 278.342L658.988 282 651.882 278.447C651.319 278.165 650.656 278.165 650.093 278.447L642.988 282 635.649 278.335C634.948 277.955 634.081 278.077 633.512 278.635 632.978 279.206 632.829 280.037 633.129 280.759Z" fill="#0042B3"/><path d="M644.033 321.566C645.432 321.566 646.566 320.432 646.566 319.033 646.566 317.634 645.432 316.5 644.033 316.5 642.634 316.5 641.5 317.634 641.5 319.033 641.502 320.431 642.635 321.564 644.033 321.566Z" fill="#0042B3"/><path d="M657.967 330.434C656.568 330.434 655.434 331.568 655.434 332.967 655.434 334.366 656.568 335.5 657.967 335.5 659.366 335.5 660.5 334.366 660.5 332.967 660.498 331.569 659.365 330.436 657.967 330.434Z" fill="#0042B3"/><path d="M663.445 299 638.555 299C627.91 309.271 617 316.915 617 331 617 340.793 621.335 347.173 630.556 350.424 631.636 350.805 632.773 351 633.918 351L668.082 351C669.227 351 670.364 350.805 671.444 350.424 680.665 347.173 685 340.793 685 331 685 316.915 674.09 309.271 663.445 299ZM644.033 313.5C647.089 313.5 649.566 315.977 649.566 319.033 649.566 322.089 647.089 324.566 644.033 324.566 640.977 324.566 638.5 322.089 638.5 319.033 638.504 315.979 640.979 313.504 644.033 313.5ZM639.673 335.206 659.839 315.039 661.96 317.16 641.794 337.327ZM657.967 338.5C654.911 338.5 652.434 336.023 652.434 332.967 652.434 329.911 654.911 327.434 657.967 327.434 661.023 327.434 663.5 329.911 663.5 332.967 663.496 336.021 661.021 338.496 657.967 338.5Z" fill="#0042B3"/></g></svg>