<?xml version="1.0" encoding="UTF-8"?>
<svg id="Layer_2" data-name="Layer 2" xmlns="http://www.w3.org/2000/svg" viewBox="0 0 84.38 61.44">
  <defs>
    <style>
      .cls-1 {
        fill: #0042b3;
      }
    </style>
  </defs>
  <g id="Diagram">
    <g id="wallet-group">
      <g id="wallet-overlay">
        <path class="cls-1" d="M70.48,35.63c-2.55,0-4.63-2.21-4.63-4.92s2.08-4.91,4.63-4.91,4.63,2.21,4.63,4.91-2.08,4.92-4.63,4.92h0ZM0,0l1,51.61c0,5.41,4.17,9.83,9.26,9.83h64.85c2.55,0,4.63-2.21,4.63-4.92v-13.52h2.32c1.27,0,2.32-1.11,2.32-2.46v-19.66c0-1.35-1.04-2.46-2.32-2.46h-2.32V4.92c0-2.7-2.08-4.92-4.63-4.92H0"/>
      </g>
    </g>
  </g>
</svg>